G04*
G04 #@! TF.GenerationSoftware,Altium Limited,Altium Designer,18.1.9 (240)*
G04*
G04 Layer_Physical_Order=2*
G04 Layer_Color=16711680*
%FSLAX24Y24*%
%MOIN*%
G70*
G01*
G75*
%ADD10C,0.0100*%
%ADD22R,0.0270X0.0350*%
%ADD25R,0.0550X0.0830*%
%ADD34C,0.0700*%
%ADD35C,0.0300*%
%ADD36C,0.7000*%
G04:AMPARAMS|DCode=37|XSize=109.8mil|YSize=200mil|CornerRadius=0mil|HoleSize=0mil|Usage=FLASHONLY|Rotation=315.000|XOffset=0mil|YOffset=0mil|HoleType=Round|Shape=Rectangle|*
%AMROTATEDRECTD37*
4,1,4,-0.1095,-0.0319,0.0319,0.1095,0.1095,0.0319,-0.0319,-0.1095,-0.1095,-0.0319,0.0*
%
%ADD37ROTATEDRECTD37*%

%ADD38R,0.0787X0.0248*%
%ADD39R,0.0276X0.0354*%
D10*
X-4690Y4403D02*
X-3923Y5170D01*
X-3495D01*
X-3495Y5670D02*
X-2647D01*
X-2666Y4914D02*
X-1517D01*
X-2836Y4744D02*
X-2666Y4914D01*
X-3421Y4744D02*
X-2836D01*
X-2647Y5670D02*
X-2403Y5426D01*
X-1956D01*
X-1944Y5414D01*
X-1517D01*
X-1190Y5087D01*
X-3495Y6170D02*
X-2425Y7240D01*
X-3751Y5926D02*
X-3495Y5670D01*
X-3939Y5926D02*
X-3751D01*
X-4150Y6137D02*
X-3939Y5926D01*
X-4150Y6137D02*
Y6560D01*
X2990Y8400D02*
X3030D01*
X2420Y8970D02*
X2990Y8400D01*
X-2360Y8970D02*
X2420D01*
X-6292Y5038D02*
X-2360Y8970D01*
X-6292Y2722D02*
Y5038D01*
Y2722D02*
X-6290Y2720D01*
X-6034Y3468D02*
Y5006D01*
X-2240Y8800D01*
X-1330D01*
X-4150Y6560D02*
X-2180Y8530D01*
X-1620D01*
X-1960Y6170D02*
X-1704Y5914D01*
X-1517D01*
X-850Y5247D01*
Y2887D02*
Y5247D01*
Y2887D02*
X1583Y453D01*
X-1960Y5670D02*
X-1874Y5584D01*
X-1446D01*
X-1020Y5158D01*
Y2700D02*
Y5158D01*
Y2700D02*
X1310Y370D01*
X-1190Y2570D02*
Y5087D01*
X-1517Y4914D02*
X-1360Y4757D01*
X-1190Y2570D02*
X200Y1180D01*
X-3495Y4670D02*
X-3421Y4744D01*
X-1360Y2500D02*
Y4757D01*
X-2216Y4414D02*
X-1960Y4670D01*
X-3939Y4414D02*
X-2216D01*
X-1360Y2500D02*
X-70Y1210D01*
X-3939Y4914D02*
X-2906D01*
X-2650Y5170D01*
X-1960D01*
X-2425Y7240D02*
X-1660D01*
X-4690Y1800D02*
Y4403D01*
Y1800D02*
X-3358Y468D01*
X-4520Y4333D02*
X-3939Y4914D01*
X-4520Y1940D02*
Y4333D01*
Y1940D02*
X-3218Y638D01*
X-4350Y4003D02*
X-3939Y4414D01*
X-3147Y808D02*
X-1758D01*
X-4180Y2081D02*
Y3870D01*
Y2081D02*
X-3199Y1100D01*
X-390D01*
X-3229Y1370D02*
X-720D01*
X-4010Y2151D02*
X-3229Y1370D01*
X-4010Y2151D02*
Y3520D01*
X-3495Y1877D02*
Y3170D01*
Y1877D02*
X-3258Y1640D01*
X-990D01*
X-4350Y2010D02*
X-3147Y808D01*
X-4350Y2010D02*
Y4003D01*
X-70Y790D02*
Y1210D01*
X-1758Y808D02*
X-1730Y780D01*
X200Y430D02*
Y1180D01*
X1310Y-610D02*
Y370D01*
X-4180Y3870D02*
X-3880Y4170D01*
X-3495D01*
X-4010Y3520D02*
X-3860Y3670D01*
X-3495D01*
X3660Y1820D02*
Y3870D01*
Y1820D02*
X6165Y-685D01*
X1710Y3870D02*
X3660D01*
X-1660Y7240D02*
X1710Y3870D01*
X6718Y812D02*
X7940Y2034D01*
Y5130D01*
X5000Y8070D02*
X7940Y5130D01*
X1744Y8070D02*
X5000D01*
X602Y6928D02*
X1744Y8070D01*
X-1330Y8800D02*
X552Y6918D01*
X-8850Y-7060D02*
Y1080D01*
X-6418Y2080D02*
X-5778Y2720D01*
X-7120Y2080D02*
X-6418D01*
X-2900Y-8120D02*
X-2510D01*
X-1720Y-8910D01*
X-440D01*
X2870Y-5600D01*
X-7790Y-8120D02*
X-2900D01*
X-8850Y-7060D02*
X-7790Y-8120D01*
X-8850Y1080D02*
X-7270Y2660D01*
X8200Y6750D02*
X8870Y6080D01*
Y1410D02*
Y6080D01*
X552Y6918D02*
X592D01*
X7420Y-3212D02*
Y-40D01*
X6832Y-3800D02*
X7420Y-3212D01*
X6830Y-3800D02*
X6832D01*
X7250Y30D02*
X8700Y1480D01*
X7250Y-3000D02*
Y30D01*
X6830Y-3420D02*
X7250Y-3000D01*
X7420Y-40D02*
X8870Y1410D01*
X2950Y-1660D02*
X3450Y-2160D01*
X1930Y-1660D02*
X2950D01*
X-630Y-400D02*
X200Y430D01*
X1583Y-880D02*
Y453D01*
X-6350Y2660D02*
X-6290Y2720D01*
X-7270Y2660D02*
X-6350D01*
X-6718Y-812D02*
X-5721D01*
X-5159Y-250D01*
X-1162D01*
X-40Y-1372D01*
Y-5369D02*
Y-1372D01*
X-602Y-5931D02*
X-40Y-5369D01*
X-602Y-6928D02*
Y-5931D01*
X7295Y6925D02*
X8700Y5520D01*
Y1480D02*
Y5520D01*
X-6718Y712D02*
X-5290Y2140D01*
Y3280D01*
X-5478Y3468D02*
X-5290Y3280D01*
X-6034Y3468D02*
X-5478D01*
X-3218Y638D02*
X-2148D01*
X-1708Y198D01*
X-1380Y468D02*
X-1378Y470D01*
X-1008D01*
X-850Y312D01*
Y88D02*
Y312D01*
X-1008Y-70D02*
X-850Y88D01*
X-1680Y-70D02*
X-1008D01*
X-2218Y468D02*
X-1680Y-70D01*
X-3358Y468D02*
X-2218D01*
X-1708Y198D02*
X-1122D01*
X-1120Y200D01*
X-1110Y210D01*
X527Y-257D02*
X1930Y-1660D01*
X527Y-257D02*
Y203D01*
X6165Y-3480D02*
Y-685D01*
X1690Y3860D02*
X3650D01*
X2870Y-5600D02*
Y-2160D01*
X-6718Y-812D02*
Y712D01*
X-1980Y-9040D02*
X6420D01*
X8020Y-7440D01*
Y-2620D01*
X-2900Y-8120D02*
X-1980Y-9040D01*
X3450Y-2160D02*
X4395Y-3105D01*
Y-3480D02*
Y-3105D01*
Y-7060D02*
Y-3480D01*
X6165Y-7060D02*
Y-3480D01*
D22*
X3450Y-2160D02*
D03*
X2870Y-2160D02*
D03*
D25*
X4395Y-3480D02*
D03*
Y-7060D02*
D03*
X6165Y-3480D02*
D03*
Y-7060D02*
D03*
D34*
X-7220Y6990D02*
D03*
Y5990D02*
D03*
X8500Y-8500D02*
D03*
X-8500D02*
D03*
D35*
X-990Y1640D02*
D03*
X-390Y1100D02*
D03*
X-1730Y780D02*
D03*
X-720Y1370D02*
D03*
X-70Y790D02*
D03*
X3230Y3100D02*
D03*
X1370Y3850D02*
D03*
X6610Y3020D02*
D03*
X-5060Y-1040D02*
D03*
X-6560Y-3480D02*
D03*
X-4290Y-2480D02*
D03*
X-1310Y-4000D02*
D03*
X-2050Y-6730D02*
D03*
X1310Y-610D02*
D03*
X-7120Y2080D02*
D03*
X-1620Y8530D02*
D03*
X6830Y-3420D02*
D03*
Y-3800D02*
D03*
X7295Y6925D02*
D03*
X8200Y6750D02*
D03*
X-1380Y468D02*
D03*
X-1660Y7240D02*
D03*
X-1120Y200D02*
D03*
X1583Y-880D02*
D03*
X527Y203D02*
D03*
X-630Y-400D02*
D03*
X-2900Y-8120D02*
D03*
X8020Y-2620D02*
D03*
X-7270Y2660D02*
D03*
X3030Y8400D02*
D03*
D36*
X3660Y3870D02*
D03*
X-3660Y-3870D02*
D03*
D37*
X6718Y812D02*
D03*
X602Y6928D02*
D03*
X-602Y-6928D02*
D03*
X-6718Y-812D02*
D03*
D38*
X-1960Y6170D02*
D03*
Y5670D02*
D03*
X-1960Y5170D02*
D03*
X-1960Y4670D02*
D03*
X-1960Y4170D02*
D03*
X-1960Y3670D02*
D03*
Y3170D02*
D03*
X-3495Y6170D02*
D03*
X-3495Y5670D02*
D03*
X-3495Y5170D02*
D03*
Y4670D02*
D03*
X-3495Y4170D02*
D03*
X-3495Y3670D02*
D03*
X-3495Y3170D02*
D03*
D39*
X-6290Y2720D02*
D03*
X-5778D02*
D03*
X-6034Y3468D02*
D03*
M02*
