G04*
G04 #@! TF.GenerationSoftware,Altium Limited,Altium Designer,18.1.9 (240)*
G04*
G04 Layer_Color=16711935*
%FSLAX24Y24*%
%MOIN*%
G70*
G01*
G75*
%ADD22R,0.0270X0.0350*%
%ADD25R,0.0550X0.0830*%
%ADD34C,0.0700*%
%ADD35C,0.0300*%
%ADD36C,0.7000*%
G04:AMPARAMS|DCode=37|XSize=109.8mil|YSize=200mil|CornerRadius=0mil|HoleSize=0mil|Usage=FLASHONLY|Rotation=315.000|XOffset=0mil|YOffset=0mil|HoleType=Round|Shape=Rectangle|*
%AMROTATEDRECTD37*
4,1,4,-0.1095,-0.0319,0.0319,0.1095,0.1095,0.0319,-0.0319,-0.1095,-0.1095,-0.0319,0.0*
%
%ADD37ROTATEDRECTD37*%

%ADD38R,0.0787X0.0248*%
%ADD39R,0.0276X0.0354*%
D22*
X3450Y-2160D02*
D03*
X2870Y-2160D02*
D03*
D25*
X4395Y-3480D02*
D03*
Y-7060D02*
D03*
X6165Y-3480D02*
D03*
Y-7060D02*
D03*
D34*
X-7220Y6990D02*
D03*
Y5990D02*
D03*
D35*
X1310Y-610D02*
D03*
X-1120Y200D02*
D03*
X-630Y-400D02*
D03*
X-990Y1640D02*
D03*
X-390Y1100D02*
D03*
X-1730Y780D02*
D03*
X-720Y1370D02*
D03*
X-70Y790D02*
D03*
X3230Y3100D02*
D03*
X1370Y3850D02*
D03*
X6610Y3020D02*
D03*
X-5060Y-1040D02*
D03*
X-6560Y-3480D02*
D03*
X-4290Y-2480D02*
D03*
X-1310Y-4000D02*
D03*
X-2050Y-6730D02*
D03*
X-7120Y2080D02*
D03*
X-1620Y8530D02*
D03*
X6830Y-3420D02*
D03*
Y-3800D02*
D03*
X7295Y6925D02*
D03*
X8200Y6750D02*
D03*
X-1380Y468D02*
D03*
X-1660Y7240D02*
D03*
X1583Y-880D02*
D03*
X527Y203D02*
D03*
X-2900Y-8120D02*
D03*
X8020Y-2620D02*
D03*
X-7270Y2660D02*
D03*
X3030Y8400D02*
D03*
D36*
X3660Y3870D02*
D03*
X-3660Y-3870D02*
D03*
D37*
X6718Y812D02*
D03*
X602Y6928D02*
D03*
X-602Y-6928D02*
D03*
X-6718Y-812D02*
D03*
D38*
X-1960Y6170D02*
D03*
Y5670D02*
D03*
X-1960Y5170D02*
D03*
X-1960Y4670D02*
D03*
X-1960Y4170D02*
D03*
X-1960Y3670D02*
D03*
Y3170D02*
D03*
X-3495Y6170D02*
D03*
X-3495Y5670D02*
D03*
X-3495Y5170D02*
D03*
Y4670D02*
D03*
X-3495Y4170D02*
D03*
X-3495Y3670D02*
D03*
X-3495Y3170D02*
D03*
D39*
X-6290Y2720D02*
D03*
X-5778D02*
D03*
X-6034Y3468D02*
D03*
M02*
