G04*
G04 #@! TF.GenerationSoftware,Altium Limited,Altium Designer,18.1.9 (240)*
G04*
G04 Layer_Color=32896*
%FSLAX24Y24*%
%MOIN*%
G70*
G01*
G75*
%ADD10C,0.0100*%
%ADD12C,0.0070*%
%ADD15C,0.0060*%
%ADD40C,0.0118*%
%ADD41C,0.0059*%
%ADD42R,0.0778X0.0276*%
D10*
X7159Y2065D02*
G03*
X1849Y7366I-3499J1805D01*
G01*
X167Y5685D02*
G03*
X5476Y377I3493J-1815D01*
G01*
X5015Y-5280D02*
G03*
X5015Y-5280I-50J0D01*
G01*
X5615D02*
G03*
X5615Y-5280I-50J0D01*
G01*
X-167Y-5685D02*
G03*
X-5476Y-377I-3493J1815D01*
G01*
X-7159Y-2065D02*
G03*
X-1849Y-7366I3499J-1805D01*
G01*
X-2078Y2802D02*
X-2078Y2928D01*
X-3377Y2802D02*
Y2928D01*
X-2078Y6538D02*
X-2078Y6412D01*
X-3377Y6412D02*
X-3377Y6538D01*
X-2078Y6538D01*
X-3377Y2802D02*
X-2078D01*
X6580Y-8650D02*
Y-8250D01*
X6380D01*
X6313Y-8317D01*
Y-8450D01*
X6380Y-8517D01*
X6580D01*
X6447D02*
X6313Y-8650D01*
X5914Y-8250D02*
X6180D01*
Y-8650D01*
X5914D01*
X6180Y-8450D02*
X6047D01*
X5514Y-8317D02*
X5580Y-8250D01*
X5714D01*
X5780Y-8317D01*
Y-8383D01*
X5714Y-8450D01*
X5580D01*
X5514Y-8517D01*
Y-8583D01*
X5580Y-8650D01*
X5714D01*
X5780Y-8583D01*
X5380Y-8250D02*
X5114D01*
X5247D01*
Y-8650D01*
X4981D02*
Y-8383D01*
X4847Y-8250D01*
X4714Y-8383D01*
Y-8650D01*
Y-8450D01*
X4981D01*
X4581Y-8650D02*
Y-8250D01*
X4381D01*
X4314Y-8317D01*
Y-8450D01*
X4381Y-8517D01*
X4581D01*
X4447D02*
X4314Y-8650D01*
X4181Y-8250D02*
X3914D01*
X4047D01*
Y-8650D01*
X-6990Y7740D02*
Y8140D01*
X-7190D01*
X-7257Y8073D01*
Y7940D01*
X-7190Y7873D01*
X-6990D01*
X-7123D02*
X-7257Y7740D01*
X-7656Y8140D02*
X-7390D01*
Y7740D01*
X-7656D01*
X-7390Y7940D02*
X-7523D01*
X-8056Y8073D02*
X-7990Y8140D01*
X-7856D01*
X-7790Y8073D01*
Y8007D01*
X-7856Y7940D01*
X-7990D01*
X-8056Y7873D01*
Y7807D01*
X-7990Y7740D01*
X-7856D01*
X-7790Y7807D01*
X-8456Y8140D02*
X-8190D01*
Y7740D01*
X-8456D01*
X-8190Y7940D02*
X-8323D01*
X-8589Y8140D02*
X-8856D01*
X-8723D01*
Y7740D01*
D12*
X3496Y-66D02*
X3695Y-265D01*
X-475Y3905D02*
X-276Y3706D01*
X4296Y7438D02*
Y7618D01*
X7228Y4506D02*
X7408D01*
X-548Y5531D02*
X-99Y5980D01*
X1550Y7629D02*
X1999Y8078D01*
X7419Y1760D02*
X7868Y2209D01*
X5321Y-338D02*
X5770Y111D01*
X7408Y4506D02*
X7868Y2209D01*
X1999Y8078D02*
X4296Y7618D01*
X3695Y-265D02*
X5321Y-338D01*
X-548Y5531D02*
X-475Y3905D01*
X5880Y6062D02*
X6435Y6617D01*
X5880Y6062D02*
Y6313D01*
Y6062D02*
X6131D01*
X5880Y6313D02*
X6131Y6062D01*
X5880Y6217D02*
X6007Y6090D01*
X6019D01*
X-6447Y3330D02*
X-6447Y2956D01*
X-6447Y3330D02*
X-6251Y3330D01*
X-5818Y3330D02*
X-5621D01*
X-6093Y2838D02*
X-5975Y2838D01*
X-5621Y3330D02*
X-5621Y2956D01*
X2845Y-1904D02*
X3475D01*
X2845Y-2416D02*
X3475D01*
X3965Y-2880D02*
X6565Y-2880D01*
Y-7680D02*
Y-2880D01*
X3965Y-7680D02*
X6565D01*
X3965Y-2880D02*
X3965Y-7680D01*
X4365Y-6480D02*
Y-4080D01*
X6165Y-6480D02*
Y-4080D01*
X5565Y-5280D02*
X6165D01*
X4365D02*
X4965D01*
X4965Y-5480D02*
X5565D01*
X5265D02*
X5265Y-5880D01*
X-6019Y-6090D02*
X-6007D01*
X-5880Y-6217D01*
X-6131Y-6062D02*
X-5880Y-6313D01*
X-6131Y-6062D02*
X-5880D01*
Y-6313D02*
Y-6062D01*
X-6435Y-6617D02*
X-5880Y-6062D01*
X475Y-3905D02*
X548Y-5531D01*
X-5321Y338D02*
X-3695Y265D01*
X-4296Y-7618D02*
X-1999Y-8078D01*
X-7868Y-2209D02*
X-7408Y-4506D01*
X-5770Y-111D02*
X-5321Y338D01*
X-7868Y-2209D02*
X-7419Y-1760D01*
X-1999Y-8078D02*
X-1550Y-7629D01*
X99Y-5980D02*
X548Y-5531D01*
X-7408Y-4506D02*
X-7228D01*
X-4296Y-7618D02*
Y-7438D01*
X276Y-3706D02*
X475Y-3905D01*
X-3695Y265D02*
X-3496Y66D01*
D15*
X7180Y-5300D02*
X7230Y-5250D01*
X7330D01*
X7380Y-5300D01*
Y-5350D01*
X7330Y-5400D01*
X7230D01*
X7180Y-5450D01*
Y-5500D01*
X7230Y-5550D01*
X7330D01*
X7380Y-5500D01*
X7080Y-5550D02*
X6980D01*
X7030D01*
Y-5250D01*
X7080Y-5300D01*
X-155Y-1565D02*
Y-1265D01*
X-305D01*
X-355Y-1315D01*
Y-1415D01*
X-305Y-1465D01*
X-155D01*
X-255D02*
X-355Y-1565D01*
X-655D02*
X-455D01*
X-655Y-1365D01*
Y-1315D01*
X-605Y-1265D01*
X-505D01*
X-455Y-1315D01*
X-6030Y3940D02*
Y4140D01*
X-5980Y4190D01*
X-5880D01*
X-5830Y4140D01*
Y3940D01*
X-5880Y3890D01*
X-5980D01*
X-5930Y3990D02*
X-6030Y3890D01*
X-5980D02*
X-6030Y3940D01*
X-6130Y3890D02*
X-6230D01*
X-6180D01*
Y4190D01*
X-6130Y4140D01*
X-2690Y7120D02*
X-2590D01*
X-2640D01*
Y6870D01*
X-2590Y6820D01*
X-2540D01*
X-2490Y6870D01*
X-2990Y6820D02*
X-2790D01*
X-2990Y7020D01*
Y7070D01*
X-2940Y7120D01*
X-2840D01*
X-2790Y7070D01*
X-750Y1765D02*
Y2065D01*
X-600D01*
X-550Y2015D01*
Y1965D01*
X-600Y1915D01*
X-750D01*
X-600D01*
X-550Y1865D01*
Y1815D01*
X-600Y1765D01*
X-750D01*
X-250Y2065D02*
X-450D01*
X-250Y1865D01*
Y1815D01*
X-300Y1765D01*
X-400D01*
X-450Y1815D01*
X-7650Y-110D02*
Y-410D01*
X-7800D01*
X-7850Y-360D01*
Y-310D01*
X-7800Y-260D01*
X-7650D01*
X-7800D01*
X-7850Y-210D01*
Y-160D01*
X-7800Y-110D01*
X-7650D01*
X-7950Y-410D02*
X-8050D01*
X-8000D01*
Y-110D01*
X-7950Y-160D01*
D40*
X5769Y-424D02*
X6047Y-146D01*
X5769D02*
X6047Y-424D01*
X-631Y6254D02*
X-353Y5976D01*
X-631Y5976D02*
X-353Y6254D01*
X353Y-6254D02*
X631Y-5976D01*
X353Y-5976D02*
X631Y-6254D01*
X-6047Y424D02*
X-5769Y146D01*
X-6047D02*
X-5769Y424D01*
D41*
X-4096Y3272D02*
X-4030D01*
X-4063D01*
Y3076D01*
X-4096Y3108D01*
D42*
X-3500Y2839D02*
D03*
M02*
