G04*
G04 #@! TF.GenerationSoftware,Altium Limited,Altium Designer,18.1.9 (240)*
G04*
G04 Layer_Color=65535*
%FSLAX24Y24*%
%MOIN*%
G70*
G01*
G75*
%ADD10C,0.0100*%
%ADD11C,0.0080*%
%ADD12C,0.0070*%
%ADD13C,0.0079*%
%ADD14C,0.0039*%
%ADD15C,0.0060*%
G04:AMPARAMS|DCode=16|XSize=24mil|YSize=55mil|CornerRadius=0mil|HoleSize=0mil|Usage=FLASHONLY|Rotation=315.000|XOffset=0mil|YOffset=0mil|HoleType=Round|Shape=Rectangle|*
%AMROTATEDRECTD16*
4,1,4,-0.0279,-0.0110,0.0110,0.0279,0.0279,0.0110,-0.0110,-0.0279,-0.0279,-0.0110,0.0*
%
%ADD16ROTATEDRECTD16*%

G04:AMPARAMS|DCode=17|XSize=22.6mil|YSize=20.7mil|CornerRadius=0mil|HoleSize=0mil|Usage=FLASHONLY|Rotation=135.000|XOffset=0mil|YOffset=0mil|HoleType=Round|Shape=Rectangle|*
%AMROTATEDRECTD17*
4,1,4,0.0153,-0.0007,0.0007,-0.0153,-0.0153,0.0007,-0.0007,0.0153,0.0153,-0.0007,0.0*
%
%ADD17ROTATEDRECTD17*%

%ADD18R,0.0226X0.0207*%
G04:AMPARAMS|DCode=19|XSize=22.6mil|YSize=20.7mil|CornerRadius=0mil|HoleSize=0mil|Usage=FLASHONLY|Rotation=225.000|XOffset=0mil|YOffset=0mil|HoleType=Round|Shape=Rectangle|*
%AMROTATEDRECTD19*
4,1,4,0.0007,0.0153,0.0153,0.0007,-0.0007,-0.0153,-0.0153,-0.0007,0.0007,0.0153,0.0*
%
%ADD19ROTATEDRECTD19*%

%ADD20R,0.0207X0.0226*%
G36*
X-6807Y-8700D02*
X-6836D01*
Y-8677D01*
X-6836Y-8677D01*
X-6837Y-8678D01*
X-6838Y-8679D01*
X-6839Y-8681D01*
X-6841Y-8683D01*
X-6843Y-8685D01*
X-6846Y-8688D01*
X-6849Y-8690D01*
X-6852Y-8693D01*
X-6856Y-8696D01*
X-6860Y-8698D01*
X-6865Y-8700D01*
X-6870Y-8702D01*
X-6876Y-8703D01*
X-6881Y-8704D01*
X-6888Y-8704D01*
X-6890D01*
X-6892Y-8704D01*
X-6894D01*
X-6896Y-8704D01*
X-6898Y-8703D01*
X-6901Y-8702D01*
X-6907Y-8701D01*
X-6914Y-8699D01*
X-6921Y-8696D01*
X-6925Y-8694D01*
X-6929Y-8692D01*
X-6929Y-8692D01*
X-6929Y-8691D01*
X-6930Y-8691D01*
X-6932Y-8690D01*
X-6933Y-8688D01*
X-6935Y-8687D01*
X-6939Y-8683D01*
X-6944Y-8678D01*
X-6948Y-8673D01*
X-6953Y-8666D01*
X-6957Y-8658D01*
Y-8658D01*
X-6958Y-8657D01*
X-6958Y-8656D01*
X-6959Y-8654D01*
X-6960Y-8652D01*
X-6960Y-8650D01*
X-6961Y-8647D01*
X-6962Y-8643D01*
X-6963Y-8640D01*
X-6964Y-8636D01*
X-6965Y-8632D01*
X-6966Y-8627D01*
X-6967Y-8618D01*
X-6967Y-8608D01*
Y-8607D01*
Y-8606D01*
Y-8605D01*
X-6967Y-8603D01*
Y-8601D01*
X-6967Y-8598D01*
X-6966Y-8594D01*
X-6966Y-8591D01*
X-6965Y-8583D01*
X-6963Y-8575D01*
X-6961Y-8566D01*
X-6958Y-8557D01*
Y-8557D01*
X-6958Y-8556D01*
X-6957Y-8555D01*
X-6956Y-8553D01*
X-6955Y-8552D01*
X-6954Y-8550D01*
X-6951Y-8545D01*
X-6947Y-8539D01*
X-6943Y-8533D01*
X-6937Y-8528D01*
X-6930Y-8523D01*
X-6930Y-8522D01*
X-6930Y-8522D01*
X-6929Y-8522D01*
X-6927Y-8521D01*
X-6925Y-8520D01*
X-6923Y-8519D01*
X-6921Y-8518D01*
X-6918Y-8517D01*
X-6912Y-8514D01*
X-6905Y-8512D01*
X-6897Y-8511D01*
X-6893Y-8511D01*
X-6886D01*
X-6883Y-8511D01*
X-6879Y-8511D01*
X-6874Y-8512D01*
X-6870Y-8514D01*
X-6864Y-8515D01*
X-6859Y-8518D01*
X-6859D01*
X-6859Y-8518D01*
X-6857Y-8519D01*
X-6855Y-8521D01*
X-6852Y-8523D01*
X-6848Y-8525D01*
X-6845Y-8529D01*
X-6841Y-8532D01*
X-6838Y-8536D01*
Y-8444D01*
X-6807D01*
Y-8700D01*
D02*
G37*
G36*
X-6336Y-8623D02*
X-6432D01*
Y-8592D01*
X-6336D01*
Y-8623D01*
D02*
G37*
G36*
X-6517Y-8700D02*
X-6550D01*
X-6604Y-8505D01*
Y-8505D01*
X-6604Y-8504D01*
X-6604Y-8503D01*
X-6605Y-8501D01*
X-6606Y-8499D01*
X-6606Y-8497D01*
X-6607Y-8492D01*
X-6609Y-8487D01*
X-6610Y-8482D01*
X-6611Y-8480D01*
X-6611Y-8478D01*
X-6612Y-8476D01*
X-6612Y-8475D01*
Y-8476D01*
X-6612Y-8476D01*
Y-8477D01*
X-6613Y-8478D01*
X-6613Y-8480D01*
X-6614Y-8482D01*
X-6615Y-8486D01*
X-6616Y-8490D01*
X-6617Y-8496D01*
X-6619Y-8501D01*
X-6620Y-8505D01*
X-6674Y-8700D01*
X-6709D01*
X-6776Y-8444D01*
X-6741D01*
X-6703Y-8612D01*
Y-8612D01*
X-6702Y-8613D01*
X-6702Y-8615D01*
X-6702Y-8617D01*
X-6701Y-8619D01*
X-6701Y-8622D01*
X-6700Y-8625D01*
X-6699Y-8629D01*
X-6698Y-8632D01*
X-6697Y-8637D01*
X-6696Y-8645D01*
X-6694Y-8655D01*
X-6692Y-8664D01*
Y-8664D01*
X-6691Y-8663D01*
X-6691Y-8660D01*
X-6690Y-8658D01*
X-6690Y-8655D01*
X-6689Y-8651D01*
X-6688Y-8647D01*
X-6687Y-8643D01*
X-6685Y-8635D01*
X-6684Y-8631D01*
X-6683Y-8627D01*
X-6682Y-8624D01*
X-6681Y-8621D01*
X-6681Y-8619D01*
X-6680Y-8617D01*
X-6632Y-8444D01*
X-6591D01*
X-6555Y-8574D01*
X-6554Y-8575D01*
X-6554Y-8576D01*
X-6553Y-8579D01*
X-6552Y-8582D01*
X-6551Y-8586D01*
X-6550Y-8591D01*
X-6548Y-8597D01*
X-6547Y-8603D01*
X-6545Y-8610D01*
X-6543Y-8617D01*
X-6542Y-8625D01*
X-6540Y-8632D01*
X-6537Y-8648D01*
X-6534Y-8664D01*
Y-8664D01*
X-6534Y-8663D01*
X-6534Y-8662D01*
X-6534Y-8660D01*
X-6533Y-8658D01*
X-6532Y-8655D01*
X-6532Y-8652D01*
X-6531Y-8648D01*
X-6530Y-8644D01*
X-6529Y-8640D01*
X-6528Y-8635D01*
X-6527Y-8631D01*
X-6524Y-8620D01*
X-6522Y-8609D01*
X-6481Y-8444D01*
X-6447D01*
X-6517Y-8700D01*
D02*
G37*
G36*
X-7005D02*
X-7033D01*
Y-8673D01*
X-7033Y-8673D01*
X-7034Y-8674D01*
X-7035Y-8676D01*
X-7037Y-8678D01*
X-7039Y-8680D01*
X-7042Y-8683D01*
X-7045Y-8686D01*
X-7048Y-8688D01*
X-7053Y-8691D01*
X-7057Y-8694D01*
X-7062Y-8697D01*
X-7067Y-8699D01*
X-7073Y-8701D01*
X-7079Y-8703D01*
X-7085Y-8704D01*
X-7092Y-8704D01*
X-7095D01*
X-7098Y-8704D01*
X-7102Y-8703D01*
X-7107Y-8703D01*
X-7112Y-8702D01*
X-7117Y-8700D01*
X-7123Y-8698D01*
X-7123D01*
X-7123Y-8698D01*
X-7125Y-8697D01*
X-7127Y-8696D01*
X-7131Y-8694D01*
X-7134Y-8691D01*
X-7138Y-8689D01*
X-7141Y-8686D01*
X-7144Y-8682D01*
X-7144Y-8682D01*
X-7145Y-8681D01*
X-7146Y-8678D01*
X-7147Y-8676D01*
X-7149Y-8672D01*
X-7151Y-8668D01*
X-7152Y-8664D01*
X-7153Y-8659D01*
Y-8658D01*
X-7154Y-8657D01*
X-7154Y-8655D01*
X-7154Y-8652D01*
X-7155Y-8648D01*
X-7155Y-8643D01*
X-7155Y-8637D01*
Y-8630D01*
Y-8515D01*
X-7124D01*
Y-8617D01*
Y-8618D01*
Y-8619D01*
Y-8620D01*
Y-8621D01*
Y-8624D01*
Y-8626D01*
X-7124Y-8631D01*
Y-8636D01*
X-7123Y-8642D01*
X-7123Y-8647D01*
X-7122Y-8649D01*
X-7122Y-8651D01*
X-7122Y-8651D01*
X-7122Y-8653D01*
X-7121Y-8655D01*
X-7119Y-8658D01*
X-7118Y-8661D01*
X-7115Y-8664D01*
X-7113Y-8667D01*
X-7109Y-8670D01*
X-7109Y-8670D01*
X-7108Y-8671D01*
X-7106Y-8672D01*
X-7103Y-8673D01*
X-7099Y-8675D01*
X-7095Y-8676D01*
X-7091Y-8677D01*
X-7086Y-8677D01*
X-7083D01*
X-7081Y-8677D01*
X-7077Y-8676D01*
X-7073Y-8675D01*
X-7068Y-8674D01*
X-7064Y-8672D01*
X-7059Y-8670D01*
X-7059D01*
X-7059Y-8670D01*
X-7057Y-8668D01*
X-7055Y-8667D01*
X-7052Y-8665D01*
X-7050Y-8662D01*
X-7047Y-8658D01*
X-7044Y-8655D01*
X-7042Y-8650D01*
Y-8650D01*
X-7041Y-8650D01*
X-7041Y-8649D01*
X-7041Y-8648D01*
X-7040Y-8647D01*
X-7040Y-8645D01*
X-7039Y-8643D01*
X-7039Y-8641D01*
X-7038Y-8636D01*
X-7037Y-8630D01*
X-7037Y-8622D01*
X-7036Y-8614D01*
Y-8515D01*
X-7005D01*
Y-8700D01*
D02*
G37*
G36*
X-5794D02*
X-5826D01*
Y-8500D01*
X-5826Y-8501D01*
X-5828Y-8502D01*
X-5830Y-8504D01*
X-5834Y-8507D01*
X-5838Y-8510D01*
X-5843Y-8514D01*
X-5849Y-8518D01*
X-5856Y-8522D01*
X-5856D01*
X-5857Y-8522D01*
X-5857Y-8523D01*
X-5859Y-8524D01*
X-5860Y-8525D01*
X-5862Y-8525D01*
X-5867Y-8528D01*
X-5872Y-8530D01*
X-5877Y-8533D01*
X-5883Y-8536D01*
X-5889Y-8538D01*
Y-8508D01*
X-5888Y-8507D01*
X-5888Y-8507D01*
X-5886Y-8506D01*
X-5884Y-8506D01*
X-5882Y-8504D01*
X-5879Y-8503D01*
X-5876Y-8501D01*
X-5873Y-8499D01*
X-5866Y-8495D01*
X-5858Y-8490D01*
X-5850Y-8484D01*
X-5843Y-8478D01*
X-5842Y-8478D01*
X-5842Y-8477D01*
X-5841Y-8476D01*
X-5839Y-8475D01*
X-5838Y-8473D01*
X-5836Y-8471D01*
X-5832Y-8467D01*
X-5827Y-8462D01*
X-5822Y-8456D01*
X-5818Y-8450D01*
X-5815Y-8443D01*
X-5794D01*
Y-8700D01*
D02*
G37*
G36*
X-6219Y-8444D02*
X-6216Y-8444D01*
X-6212Y-8445D01*
X-6208Y-8445D01*
X-6204Y-8446D01*
X-6199Y-8447D01*
X-6195Y-8448D01*
X-6190Y-8450D01*
X-6185Y-8452D01*
X-6180Y-8455D01*
X-6175Y-8457D01*
X-6171Y-8460D01*
X-6167Y-8464D01*
X-6166Y-8464D01*
X-6166Y-8465D01*
X-6165Y-8466D01*
X-6163Y-8468D01*
X-6162Y-8470D01*
X-6160Y-8472D01*
X-6158Y-8475D01*
X-6156Y-8478D01*
X-6154Y-8481D01*
X-6152Y-8485D01*
X-6150Y-8489D01*
X-6148Y-8494D01*
X-6147Y-8499D01*
X-6146Y-8504D01*
X-6145Y-8509D01*
X-6145Y-8515D01*
Y-8515D01*
Y-8515D01*
Y-8516D01*
Y-8517D01*
X-6145Y-8520D01*
X-6146Y-8524D01*
X-6147Y-8529D01*
X-6148Y-8534D01*
X-6149Y-8539D01*
X-6152Y-8545D01*
Y-8545D01*
X-6152Y-8545D01*
X-6152Y-8546D01*
X-6153Y-8547D01*
X-6154Y-8550D01*
X-6157Y-8554D01*
X-6160Y-8559D01*
X-6163Y-8564D01*
X-6167Y-8570D01*
X-6173Y-8576D01*
X-6173Y-8576D01*
X-6173Y-8577D01*
X-6174Y-8578D01*
X-6175Y-8579D01*
X-6177Y-8581D01*
X-6179Y-8583D01*
X-6181Y-8585D01*
X-6184Y-8588D01*
X-6187Y-8591D01*
X-6191Y-8594D01*
X-6195Y-8598D01*
X-6199Y-8602D01*
X-6204Y-8606D01*
X-6209Y-8611D01*
X-6215Y-8616D01*
X-6221Y-8621D01*
X-6221Y-8621D01*
X-6222Y-8622D01*
X-6224Y-8623D01*
X-6225Y-8625D01*
X-6228Y-8627D01*
X-6230Y-8629D01*
X-6236Y-8634D01*
X-6242Y-8639D01*
X-6248Y-8645D01*
X-6251Y-8647D01*
X-6253Y-8649D01*
X-6256Y-8652D01*
X-6257Y-8653D01*
X-6258Y-8653D01*
X-6259Y-8655D01*
X-6260Y-8656D01*
X-6262Y-8658D01*
X-6264Y-8661D01*
X-6266Y-8664D01*
X-6271Y-8670D01*
X-6145D01*
Y-8700D01*
X-6314D01*
Y-8699D01*
Y-8698D01*
Y-8696D01*
X-6314Y-8693D01*
X-6314Y-8690D01*
X-6313Y-8686D01*
X-6312Y-8682D01*
X-6311Y-8678D01*
Y-8678D01*
X-6310Y-8678D01*
X-6310Y-8677D01*
X-6309Y-8675D01*
X-6309Y-8674D01*
X-6308Y-8672D01*
X-6306Y-8668D01*
X-6303Y-8662D01*
X-6299Y-8657D01*
X-6295Y-8650D01*
X-6290Y-8644D01*
X-6290Y-8644D01*
X-6289Y-8643D01*
X-6289Y-8643D01*
X-6287Y-8641D01*
X-6286Y-8640D01*
X-6284Y-8638D01*
X-6282Y-8636D01*
X-6280Y-8633D01*
X-6277Y-8630D01*
X-6274Y-8628D01*
X-6270Y-8624D01*
X-6266Y-8621D01*
X-6263Y-8617D01*
X-6258Y-8614D01*
X-6254Y-8610D01*
X-6249Y-8606D01*
X-6248Y-8606D01*
X-6247Y-8604D01*
X-6245Y-8602D01*
X-6242Y-8600D01*
X-6239Y-8597D01*
X-6235Y-8594D01*
X-6230Y-8590D01*
X-6226Y-8586D01*
X-6217Y-8578D01*
X-6207Y-8568D01*
X-6203Y-8564D01*
X-6199Y-8560D01*
X-6195Y-8555D01*
X-6192Y-8552D01*
X-6192Y-8551D01*
X-6192Y-8551D01*
X-6191Y-8550D01*
X-6190Y-8548D01*
X-6189Y-8546D01*
X-6188Y-8544D01*
X-6185Y-8539D01*
X-6182Y-8534D01*
X-6180Y-8527D01*
X-6178Y-8521D01*
X-6178Y-8517D01*
X-6177Y-8514D01*
Y-8514D01*
Y-8513D01*
Y-8512D01*
X-6178Y-8511D01*
Y-8509D01*
X-6178Y-8507D01*
X-6179Y-8503D01*
X-6181Y-8498D01*
X-6183Y-8493D01*
X-6184Y-8490D01*
X-6186Y-8488D01*
X-6188Y-8485D01*
X-6191Y-8483D01*
X-6191Y-8482D01*
X-6191Y-8482D01*
X-6192Y-8481D01*
X-6193Y-8481D01*
X-6195Y-8480D01*
X-6196Y-8478D01*
X-6200Y-8476D01*
X-6206Y-8474D01*
X-6211Y-8471D01*
X-6218Y-8470D01*
X-6222Y-8470D01*
X-6228D01*
X-6230Y-8470D01*
X-6232D01*
X-6234Y-8470D01*
X-6239Y-8471D01*
X-6245Y-8473D01*
X-6251Y-8475D01*
X-6254Y-8477D01*
X-6257Y-8479D01*
X-6260Y-8481D01*
X-6263Y-8483D01*
X-6263Y-8484D01*
X-6263Y-8484D01*
X-6264Y-8485D01*
X-6265Y-8486D01*
X-6266Y-8487D01*
X-6267Y-8489D01*
X-6268Y-8491D01*
X-6269Y-8493D01*
X-6271Y-8496D01*
X-6272Y-8498D01*
X-6274Y-8505D01*
X-6276Y-8512D01*
X-6276Y-8516D01*
X-6276Y-8521D01*
X-6308Y-8517D01*
Y-8517D01*
X-6308Y-8516D01*
X-6308Y-8514D01*
X-6307Y-8512D01*
X-6307Y-8509D01*
X-6306Y-8505D01*
X-6305Y-8501D01*
X-6304Y-8497D01*
X-6302Y-8493D01*
X-6301Y-8488D01*
X-6299Y-8484D01*
X-6296Y-8479D01*
X-6294Y-8475D01*
X-6291Y-8470D01*
X-6287Y-8466D01*
X-6283Y-8463D01*
X-6283Y-8462D01*
X-6282Y-8462D01*
X-6281Y-8461D01*
X-6280Y-8460D01*
X-6277Y-8458D01*
X-6275Y-8457D01*
X-6271Y-8455D01*
X-6268Y-8453D01*
X-6264Y-8451D01*
X-6260Y-8450D01*
X-6255Y-8448D01*
X-6250Y-8447D01*
X-6244Y-8445D01*
X-6238Y-8444D01*
X-6232Y-8444D01*
X-6225Y-8443D01*
X-6222D01*
X-6219Y-8444D01*
D02*
G37*
G36*
X-7287Y-8445D02*
X-7284D01*
X-7281Y-8445D01*
X-7277Y-8445D01*
X-7270Y-8446D01*
X-7262Y-8448D01*
X-7255Y-8450D01*
X-7247Y-8452D01*
X-7247D01*
X-7247Y-8453D01*
X-7246Y-8453D01*
X-7244Y-8454D01*
X-7241Y-8456D01*
X-7237Y-8458D01*
X-7233Y-8461D01*
X-7228Y-8466D01*
X-7224Y-8471D01*
X-7220Y-8476D01*
Y-8476D01*
X-7219Y-8477D01*
X-7219Y-8478D01*
X-7218Y-8479D01*
X-7217Y-8480D01*
X-7216Y-8482D01*
X-7214Y-8486D01*
X-7213Y-8491D01*
X-7211Y-8497D01*
X-7210Y-8503D01*
X-7209Y-8510D01*
Y-8510D01*
Y-8511D01*
Y-8512D01*
Y-8513D01*
X-7210Y-8516D01*
X-7211Y-8520D01*
X-7212Y-8525D01*
X-7213Y-8530D01*
X-7215Y-8535D01*
X-7219Y-8541D01*
Y-8541D01*
X-7219Y-8541D01*
X-7219Y-8542D01*
X-7220Y-8543D01*
X-7222Y-8546D01*
X-7225Y-8549D01*
X-7229Y-8553D01*
X-7233Y-8557D01*
X-7239Y-8560D01*
X-7245Y-8564D01*
X-7245D01*
X-7244Y-8564D01*
X-7243Y-8565D01*
X-7241Y-8565D01*
X-7239Y-8566D01*
X-7237Y-8567D01*
X-7232Y-8570D01*
X-7226Y-8573D01*
X-7220Y-8577D01*
X-7215Y-8581D01*
X-7210Y-8587D01*
X-7209Y-8588D01*
X-7209Y-8588D01*
X-7209Y-8589D01*
X-7208Y-8590D01*
X-7207Y-8592D01*
X-7206Y-8594D01*
X-7204Y-8596D01*
X-7203Y-8598D01*
X-7201Y-8604D01*
X-7199Y-8611D01*
X-7197Y-8618D01*
X-7197Y-8622D01*
Y-8626D01*
Y-8626D01*
Y-8627D01*
Y-8628D01*
Y-8629D01*
X-7197Y-8631D01*
Y-8632D01*
X-7198Y-8637D01*
X-7199Y-8642D01*
X-7200Y-8648D01*
X-7202Y-8654D01*
X-7205Y-8660D01*
Y-8660D01*
X-7205Y-8660D01*
X-7206Y-8661D01*
X-7206Y-8662D01*
X-7208Y-8665D01*
X-7210Y-8668D01*
X-7212Y-8672D01*
X-7216Y-8676D01*
X-7219Y-8680D01*
X-7224Y-8683D01*
X-7224Y-8684D01*
X-7225Y-8685D01*
X-7228Y-8686D01*
X-7231Y-8688D01*
X-7235Y-8690D01*
X-7240Y-8692D01*
X-7245Y-8694D01*
X-7251Y-8696D01*
X-7252D01*
X-7252Y-8696D01*
X-7253D01*
X-7255Y-8696D01*
X-7256Y-8697D01*
X-7258Y-8697D01*
X-7260Y-8698D01*
X-7263Y-8698D01*
X-7266Y-8698D01*
X-7269Y-8699D01*
X-7276Y-8699D01*
X-7284Y-8700D01*
X-7293Y-8700D01*
X-7390D01*
Y-8444D01*
X-7289D01*
X-7287Y-8445D01*
D02*
G37*
G36*
X-5626Y-8444D02*
X-5623Y-8444D01*
X-5619Y-8445D01*
X-5616Y-8445D01*
X-5612Y-8446D01*
X-5608Y-8447D01*
X-5603Y-8448D01*
X-5599Y-8450D01*
X-5594Y-8452D01*
X-5590Y-8454D01*
X-5585Y-8457D01*
X-5581Y-8460D01*
X-5577Y-8463D01*
X-5577Y-8463D01*
X-5576Y-8464D01*
X-5575Y-8465D01*
X-5574Y-8466D01*
X-5572Y-8468D01*
X-5571Y-8471D01*
X-5569Y-8473D01*
X-5567Y-8476D01*
X-5565Y-8480D01*
X-5563Y-8483D01*
X-5561Y-8487D01*
X-5560Y-8491D01*
X-5558Y-8496D01*
X-5557Y-8500D01*
X-5557Y-8505D01*
X-5557Y-8510D01*
Y-8511D01*
Y-8511D01*
Y-8512D01*
Y-8513D01*
X-5557Y-8515D01*
X-5557Y-8517D01*
X-5558Y-8521D01*
X-5559Y-8525D01*
X-5560Y-8531D01*
X-5563Y-8536D01*
X-5566Y-8541D01*
Y-8542D01*
X-5567Y-8542D01*
X-5568Y-8543D01*
X-5570Y-8546D01*
X-5573Y-8549D01*
X-5577Y-8552D01*
X-5582Y-8555D01*
X-5588Y-8558D01*
X-5594Y-8561D01*
X-5594D01*
X-5593Y-8562D01*
X-5592Y-8562D01*
X-5590Y-8563D01*
X-5588Y-8564D01*
X-5586Y-8565D01*
X-5581Y-8568D01*
X-5575Y-8571D01*
X-5569Y-8575D01*
X-5563Y-8580D01*
X-5558Y-8586D01*
X-5558Y-8587D01*
X-5558Y-8587D01*
X-5557Y-8588D01*
X-5557Y-8589D01*
X-5556Y-8591D01*
X-5555Y-8593D01*
X-5553Y-8595D01*
X-5552Y-8598D01*
X-5550Y-8604D01*
X-5548Y-8611D01*
X-5547Y-8618D01*
X-5546Y-8622D01*
Y-8627D01*
Y-8627D01*
Y-8628D01*
X-5546Y-8630D01*
Y-8632D01*
X-5547Y-8635D01*
X-5547Y-8639D01*
X-5548Y-8642D01*
X-5549Y-8646D01*
X-5550Y-8650D01*
X-5552Y-8655D01*
X-5553Y-8659D01*
X-5556Y-8664D01*
X-5558Y-8669D01*
X-5562Y-8673D01*
X-5565Y-8678D01*
X-5569Y-8682D01*
X-5570Y-8682D01*
X-5570Y-8683D01*
X-5572Y-8684D01*
X-5573Y-8685D01*
X-5576Y-8687D01*
X-5579Y-8689D01*
X-5582Y-8691D01*
X-5586Y-8693D01*
X-5590Y-8695D01*
X-5594Y-8697D01*
X-5599Y-8699D01*
X-5605Y-8701D01*
X-5611Y-8702D01*
X-5617Y-8703D01*
X-5623Y-8704D01*
X-5630Y-8704D01*
X-5632D01*
X-5634Y-8704D01*
X-5637D01*
X-5640Y-8704D01*
X-5644Y-8703D01*
X-5648Y-8702D01*
X-5652Y-8701D01*
X-5657Y-8700D01*
X-5662Y-8699D01*
X-5667Y-8697D01*
X-5672Y-8695D01*
X-5677Y-8692D01*
X-5682Y-8689D01*
X-5687Y-8686D01*
X-5691Y-8682D01*
X-5692Y-8682D01*
X-5693Y-8681D01*
X-5694Y-8680D01*
X-5695Y-8678D01*
X-5697Y-8676D01*
X-5699Y-8673D01*
X-5701Y-8670D01*
X-5703Y-8666D01*
X-5705Y-8663D01*
X-5707Y-8658D01*
X-5709Y-8654D01*
X-5711Y-8649D01*
X-5712Y-8644D01*
X-5713Y-8638D01*
X-5714Y-8632D01*
X-5714Y-8626D01*
Y-8626D01*
Y-8625D01*
Y-8624D01*
X-5714Y-8622D01*
Y-8620D01*
X-5714Y-8617D01*
X-5713Y-8614D01*
X-5713Y-8611D01*
X-5711Y-8605D01*
X-5709Y-8598D01*
X-5706Y-8591D01*
X-5704Y-8588D01*
X-5702Y-8584D01*
X-5702Y-8584D01*
X-5701Y-8584D01*
X-5701Y-8583D01*
X-5699Y-8582D01*
X-5698Y-8580D01*
X-5697Y-8579D01*
X-5695Y-8577D01*
X-5693Y-8575D01*
X-5688Y-8571D01*
X-5681Y-8568D01*
X-5674Y-8564D01*
X-5666Y-8561D01*
X-5666D01*
X-5667Y-8561D01*
X-5668Y-8561D01*
X-5669Y-8560D01*
X-5671Y-8560D01*
X-5673Y-8558D01*
X-5677Y-8556D01*
X-5681Y-8553D01*
X-5686Y-8550D01*
X-5691Y-8546D01*
X-5695Y-8541D01*
Y-8541D01*
X-5695Y-8541D01*
X-5696Y-8540D01*
X-5696Y-8539D01*
X-5698Y-8536D01*
X-5699Y-8532D01*
X-5701Y-8528D01*
X-5703Y-8522D01*
X-5704Y-8516D01*
X-5704Y-8509D01*
Y-8509D01*
Y-8508D01*
X-5704Y-8507D01*
Y-8505D01*
X-5704Y-8503D01*
X-5703Y-8500D01*
X-5703Y-8497D01*
X-5702Y-8493D01*
X-5701Y-8489D01*
X-5699Y-8486D01*
X-5698Y-8482D01*
X-5696Y-8478D01*
X-5693Y-8474D01*
X-5691Y-8470D01*
X-5688Y-8466D01*
X-5684Y-8463D01*
X-5684Y-8462D01*
X-5683Y-8462D01*
X-5682Y-8461D01*
X-5681Y-8460D01*
X-5679Y-8458D01*
X-5676Y-8457D01*
X-5673Y-8455D01*
X-5670Y-8453D01*
X-5667Y-8451D01*
X-5662Y-8450D01*
X-5658Y-8448D01*
X-5653Y-8447D01*
X-5648Y-8445D01*
X-5643Y-8444D01*
X-5637Y-8444D01*
X-5631Y-8443D01*
X-5628D01*
X-5626Y-8444D01*
D02*
G37*
G36*
X-6023D02*
X-6021Y-8444D01*
X-6016Y-8445D01*
X-6010Y-8445D01*
X-6004Y-8447D01*
X-5998Y-8449D01*
X-5992Y-8452D01*
X-5992D01*
X-5991Y-8452D01*
X-5990Y-8453D01*
X-5989Y-8453D01*
X-5986Y-8455D01*
X-5983Y-8458D01*
X-5979Y-8461D01*
X-5975Y-8465D01*
X-5970Y-8470D01*
X-5966Y-8476D01*
Y-8476D01*
X-5966Y-8477D01*
X-5965Y-8478D01*
X-5965Y-8479D01*
X-5964Y-8480D01*
X-5963Y-8482D01*
X-5962Y-8484D01*
X-5960Y-8486D01*
X-5958Y-8492D01*
X-5955Y-8498D01*
X-5953Y-8506D01*
X-5950Y-8514D01*
Y-8514D01*
X-5950Y-8515D01*
X-5950Y-8516D01*
X-5950Y-8518D01*
X-5949Y-8520D01*
X-5948Y-8523D01*
X-5948Y-8526D01*
X-5947Y-8530D01*
X-5947Y-8534D01*
X-5947Y-8538D01*
X-5946Y-8543D01*
X-5945Y-8548D01*
X-5945Y-8554D01*
X-5945Y-8560D01*
X-5945Y-8567D01*
Y-8574D01*
Y-8575D01*
Y-8576D01*
Y-8578D01*
Y-8581D01*
X-5945Y-8585D01*
X-5945Y-8589D01*
X-5945Y-8594D01*
X-5946Y-8600D01*
X-5946Y-8606D01*
X-5947Y-8611D01*
X-5948Y-8624D01*
X-5951Y-8635D01*
X-5952Y-8641D01*
X-5954Y-8647D01*
Y-8647D01*
X-5955Y-8648D01*
X-5955Y-8649D01*
X-5956Y-8651D01*
X-5957Y-8653D01*
X-5958Y-8656D01*
X-5959Y-8659D01*
X-5961Y-8662D01*
X-5965Y-8669D01*
X-5970Y-8676D01*
X-5975Y-8683D01*
X-5978Y-8686D01*
X-5982Y-8689D01*
X-5982Y-8689D01*
X-5983Y-8690D01*
X-5984Y-8691D01*
X-5985Y-8691D01*
X-5987Y-8693D01*
X-5989Y-8694D01*
X-5991Y-8695D01*
X-5994Y-8697D01*
X-5998Y-8698D01*
X-6001Y-8699D01*
X-6005Y-8701D01*
X-6009Y-8702D01*
X-6013Y-8703D01*
X-6018Y-8704D01*
X-6023Y-8704D01*
X-6028Y-8704D01*
X-6030D01*
X-6032Y-8704D01*
X-6034Y-8704D01*
X-6037Y-8703D01*
X-6041Y-8703D01*
X-6045Y-8702D01*
X-6049Y-8701D01*
X-6053Y-8699D01*
X-6058Y-8698D01*
X-6063Y-8696D01*
X-6068Y-8693D01*
X-6073Y-8690D01*
X-6077Y-8686D01*
X-6082Y-8683D01*
X-6086Y-8678D01*
X-6086Y-8678D01*
X-6087Y-8676D01*
X-6088Y-8675D01*
X-6090Y-8672D01*
X-6092Y-8668D01*
X-6094Y-8664D01*
X-6096Y-8659D01*
X-6098Y-8653D01*
X-6101Y-8646D01*
X-6103Y-8639D01*
X-6105Y-8630D01*
X-6107Y-8620D01*
X-6109Y-8610D01*
X-6110Y-8599D01*
X-6111Y-8587D01*
X-6111Y-8574D01*
Y-8573D01*
Y-8572D01*
Y-8570D01*
X-6111Y-8566D01*
Y-8563D01*
X-6111Y-8558D01*
X-6110Y-8553D01*
X-6110Y-8548D01*
X-6109Y-8542D01*
X-6109Y-8536D01*
X-6107Y-8524D01*
X-6105Y-8512D01*
X-6104Y-8506D01*
X-6102Y-8501D01*
Y-8501D01*
X-6101Y-8500D01*
X-6101Y-8498D01*
X-6100Y-8496D01*
X-6099Y-8494D01*
X-6098Y-8491D01*
X-6097Y-8489D01*
X-6095Y-8485D01*
X-6091Y-8478D01*
X-6086Y-8471D01*
X-6081Y-8465D01*
X-6078Y-8461D01*
X-6074Y-8458D01*
X-6074Y-8458D01*
X-6073Y-8458D01*
X-6072Y-8457D01*
X-6071Y-8456D01*
X-6069Y-8455D01*
X-6067Y-8454D01*
X-6065Y-8452D01*
X-6062Y-8451D01*
X-6058Y-8450D01*
X-6055Y-8448D01*
X-6051Y-8447D01*
X-6047Y-8446D01*
X-6043Y-8445D01*
X-6038Y-8444D01*
X-6033Y-8444D01*
X-6028Y-8443D01*
X-6025D01*
X-6023Y-8444D01*
D02*
G37*
G36*
X-7053Y-8140D02*
X-7085D01*
Y-8104D01*
X-7053D01*
Y-8140D01*
D02*
G37*
G36*
X-6914Y-8171D02*
X-6913D01*
X-6909Y-8171D01*
X-6904Y-8172D01*
X-6899Y-8173D01*
X-6893Y-8175D01*
X-6888Y-8177D01*
X-6888D01*
X-6888Y-8177D01*
X-6886Y-8178D01*
X-6883Y-8179D01*
X-6880Y-8181D01*
X-6877Y-8183D01*
X-6873Y-8186D01*
X-6870Y-8189D01*
X-6867Y-8192D01*
X-6867Y-8193D01*
X-6866Y-8194D01*
X-6865Y-8196D01*
X-6863Y-8199D01*
X-6862Y-8202D01*
X-6860Y-8206D01*
X-6858Y-8211D01*
X-6857Y-8216D01*
Y-8216D01*
X-6857Y-8217D01*
X-6857Y-8220D01*
X-6856Y-8223D01*
X-6856Y-8227D01*
Y-8229D01*
X-6856Y-8232D01*
Y-8235D01*
X-6855Y-8239D01*
Y-8242D01*
Y-8246D01*
Y-8360D01*
X-6887D01*
Y-8247D01*
Y-8247D01*
Y-8246D01*
Y-8245D01*
Y-8244D01*
Y-8243D01*
X-6887Y-8241D01*
X-6887Y-8236D01*
X-6888Y-8232D01*
X-6888Y-8227D01*
X-6889Y-8223D01*
X-6891Y-8219D01*
X-6891Y-8218D01*
X-6891Y-8217D01*
X-6892Y-8215D01*
X-6894Y-8213D01*
X-6895Y-8211D01*
X-6898Y-8208D01*
X-6900Y-8206D01*
X-6904Y-8203D01*
X-6904Y-8203D01*
X-6905Y-8203D01*
X-6907Y-8202D01*
X-6910Y-8200D01*
X-6913Y-8200D01*
X-6917Y-8199D01*
X-6921Y-8198D01*
X-6926Y-8198D01*
X-6927D01*
X-6929Y-8198D01*
X-6930D01*
X-6933Y-8198D01*
X-6937Y-8199D01*
X-6943Y-8201D01*
X-6948Y-8203D01*
X-6954Y-8206D01*
X-6957Y-8208D01*
X-6960Y-8210D01*
X-6960Y-8211D01*
X-6961Y-8211D01*
X-6962Y-8212D01*
X-6962Y-8213D01*
X-6963Y-8215D01*
X-6965Y-8216D01*
X-6966Y-8218D01*
X-6967Y-8221D01*
X-6969Y-8224D01*
X-6970Y-8228D01*
X-6971Y-8232D01*
X-6972Y-8236D01*
X-6973Y-8241D01*
X-6974Y-8246D01*
X-6974Y-8253D01*
X-6975Y-8259D01*
Y-8360D01*
X-7006D01*
Y-8175D01*
X-6978D01*
Y-8201D01*
X-6977Y-8201D01*
X-6977Y-8200D01*
X-6975Y-8199D01*
X-6974Y-8197D01*
X-6972Y-8194D01*
X-6969Y-8192D01*
X-6966Y-8189D01*
X-6963Y-8186D01*
X-6959Y-8183D01*
X-6954Y-8180D01*
X-6950Y-8178D01*
X-6944Y-8175D01*
X-6939Y-8173D01*
X-6932Y-8172D01*
X-6926Y-8171D01*
X-6919Y-8171D01*
X-6916D01*
X-6914Y-8171D01*
D02*
G37*
G36*
X-5934D02*
X-5932Y-8171D01*
X-5929Y-8171D01*
X-5926Y-8172D01*
X-5923Y-8172D01*
X-5916Y-8174D01*
X-5909Y-8177D01*
X-5906Y-8179D01*
X-5903Y-8181D01*
X-5899Y-8183D01*
X-5896Y-8186D01*
X-5896Y-8186D01*
X-5896Y-8187D01*
X-5895Y-8188D01*
X-5894Y-8189D01*
X-5893Y-8190D01*
X-5892Y-8192D01*
X-5890Y-8195D01*
X-5889Y-8198D01*
X-5888Y-8201D01*
X-5886Y-8204D01*
X-5885Y-8208D01*
X-5884Y-8212D01*
X-5883Y-8217D01*
X-5882Y-8222D01*
X-5882Y-8227D01*
X-5881Y-8233D01*
Y-8360D01*
X-5913D01*
Y-8243D01*
Y-8243D01*
Y-8243D01*
Y-8241D01*
Y-8240D01*
X-5913Y-8237D01*
Y-8233D01*
X-5914Y-8228D01*
X-5914Y-8224D01*
X-5915Y-8220D01*
X-5916Y-8216D01*
Y-8216D01*
X-5916Y-8215D01*
X-5917Y-8213D01*
X-5918Y-8212D01*
X-5920Y-8209D01*
X-5922Y-8207D01*
X-5924Y-8205D01*
X-5927Y-8203D01*
X-5927Y-8203D01*
X-5928Y-8202D01*
X-5930Y-8201D01*
X-5932Y-8200D01*
X-5935Y-8199D01*
X-5938Y-8199D01*
X-5942Y-8198D01*
X-5946Y-8198D01*
X-5948D01*
X-5949Y-8198D01*
X-5951D01*
X-5953Y-8198D01*
X-5957Y-8199D01*
X-5962Y-8201D01*
X-5968Y-8203D01*
X-5973Y-8206D01*
X-5976Y-8208D01*
X-5978Y-8211D01*
Y-8211D01*
X-5979Y-8211D01*
X-5980Y-8212D01*
X-5980Y-8213D01*
X-5981Y-8215D01*
X-5983Y-8216D01*
X-5984Y-8218D01*
X-5985Y-8221D01*
X-5986Y-8223D01*
X-5987Y-8226D01*
X-5988Y-8230D01*
X-5990Y-8234D01*
X-5990Y-8238D01*
X-5991Y-8243D01*
X-5991Y-8247D01*
X-5991Y-8253D01*
Y-8360D01*
X-6023D01*
Y-8240D01*
Y-8240D01*
Y-8239D01*
Y-8238D01*
Y-8236D01*
X-6023Y-8235D01*
Y-8233D01*
X-6024Y-8228D01*
X-6025Y-8223D01*
X-6026Y-8218D01*
X-6028Y-8213D01*
X-6031Y-8208D01*
X-6031Y-8208D01*
X-6032Y-8207D01*
X-6034Y-8205D01*
X-6036Y-8203D01*
X-6040Y-8201D01*
X-6044Y-8199D01*
X-6049Y-8198D01*
X-6055Y-8198D01*
X-6058D01*
X-6060Y-8198D01*
X-6063Y-8199D01*
X-6067Y-8199D01*
X-6072Y-8201D01*
X-6076Y-8202D01*
X-6080Y-8205D01*
X-6081Y-8205D01*
X-6082Y-8206D01*
X-6084Y-8208D01*
X-6086Y-8210D01*
X-6089Y-8213D01*
X-6092Y-8217D01*
X-6094Y-8221D01*
X-6096Y-8225D01*
Y-8226D01*
X-6097Y-8226D01*
X-6097Y-8227D01*
X-6097Y-8228D01*
X-6098Y-8229D01*
X-6098Y-8231D01*
X-6098Y-8233D01*
X-6099Y-8235D01*
X-6099Y-8238D01*
X-6100Y-8241D01*
X-6100Y-8244D01*
X-6101Y-8247D01*
X-6101Y-8251D01*
X-6101Y-8255D01*
X-6101Y-8259D01*
Y-8264D01*
Y-8360D01*
X-6133D01*
Y-8175D01*
X-6105D01*
Y-8200D01*
X-6104Y-8200D01*
X-6103Y-8199D01*
X-6101Y-8196D01*
X-6098Y-8193D01*
X-6095Y-8189D01*
X-6091Y-8186D01*
X-6087Y-8182D01*
X-6081Y-8179D01*
X-6081D01*
X-6081Y-8179D01*
X-6080Y-8178D01*
X-6079Y-8177D01*
X-6078Y-8177D01*
X-6076Y-8176D01*
X-6072Y-8175D01*
X-6067Y-8173D01*
X-6062Y-8172D01*
X-6055Y-8171D01*
X-6049Y-8171D01*
X-6045D01*
X-6043Y-8171D01*
X-6041Y-8171D01*
X-6037Y-8172D01*
X-6031Y-8173D01*
X-6026Y-8174D01*
X-6020Y-8176D01*
X-6015Y-8179D01*
X-6015D01*
X-6014Y-8179D01*
X-6013Y-8181D01*
X-6011Y-8183D01*
X-6008Y-8185D01*
X-6004Y-8189D01*
X-6001Y-8193D01*
X-5999Y-8197D01*
X-5996Y-8203D01*
X-5996Y-8203D01*
X-5995Y-8202D01*
X-5994Y-8200D01*
X-5992Y-8198D01*
X-5990Y-8195D01*
X-5987Y-8193D01*
X-5984Y-8190D01*
X-5981Y-8187D01*
X-5977Y-8184D01*
X-5972Y-8181D01*
X-5968Y-8178D01*
X-5963Y-8176D01*
X-5957Y-8174D01*
X-5951Y-8172D01*
X-5945Y-8171D01*
X-5939Y-8171D01*
X-5936D01*
X-5934Y-8171D01*
D02*
G37*
G36*
X-5751Y-8283D02*
X-5847D01*
Y-8252D01*
X-5751D01*
Y-8283D01*
D02*
G37*
G36*
X-6381Y-8360D02*
X-6414D01*
Y-8146D01*
X-6489Y-8360D01*
X-6519D01*
X-6593Y-8142D01*
Y-8360D01*
X-6626D01*
Y-8104D01*
X-6575D01*
X-6514Y-8285D01*
Y-8286D01*
X-6514Y-8287D01*
X-6514Y-8288D01*
X-6513Y-8290D01*
X-6512Y-8292D01*
X-6512Y-8294D01*
X-6510Y-8300D01*
X-6508Y-8306D01*
X-6506Y-8312D01*
X-6504Y-8318D01*
X-6503Y-8321D01*
X-6502Y-8323D01*
Y-8323D01*
X-6502Y-8323D01*
X-6502Y-8322D01*
X-6501Y-8321D01*
X-6501Y-8319D01*
X-6500Y-8317D01*
X-6500Y-8315D01*
X-6499Y-8313D01*
X-6498Y-8310D01*
X-6497Y-8307D01*
X-6496Y-8304D01*
X-6495Y-8300D01*
X-6493Y-8296D01*
X-6492Y-8292D01*
X-6490Y-8287D01*
X-6489Y-8282D01*
X-6427Y-8104D01*
X-6381D01*
Y-8360D01*
D02*
G37*
G36*
X-5408D02*
X-5439D01*
Y-8160D01*
X-5440Y-8161D01*
X-5441Y-8162D01*
X-5444Y-8164D01*
X-5447Y-8167D01*
X-5452Y-8170D01*
X-5457Y-8174D01*
X-5463Y-8178D01*
X-5469Y-8182D01*
X-5470D01*
X-5470Y-8182D01*
X-5471Y-8183D01*
X-5472Y-8184D01*
X-5474Y-8185D01*
X-5476Y-8185D01*
X-5480Y-8188D01*
X-5485Y-8190D01*
X-5491Y-8193D01*
X-5497Y-8196D01*
X-5502Y-8198D01*
Y-8168D01*
X-5502Y-8167D01*
X-5501Y-8167D01*
X-5500Y-8166D01*
X-5498Y-8166D01*
X-5496Y-8164D01*
X-5493Y-8163D01*
X-5490Y-8161D01*
X-5487Y-8159D01*
X-5480Y-8155D01*
X-5472Y-8150D01*
X-5464Y-8144D01*
X-5456Y-8138D01*
X-5456Y-8138D01*
X-5455Y-8137D01*
X-5454Y-8136D01*
X-5453Y-8135D01*
X-5452Y-8133D01*
X-5450Y-8131D01*
X-5445Y-8127D01*
X-5441Y-8122D01*
X-5436Y-8116D01*
X-5432Y-8110D01*
X-5428Y-8104D01*
X-5408D01*
Y-8360D01*
D02*
G37*
G36*
X-6776Y-8250D02*
X-6701Y-8175D01*
X-6661D01*
X-6732Y-8244D01*
X-6653Y-8360D01*
X-6692D01*
X-6754Y-8265D01*
X-6776Y-8287D01*
Y-8360D01*
X-6807D01*
Y-8104D01*
X-6776D01*
Y-8250D01*
D02*
G37*
G36*
X-7053Y-8360D02*
X-7085D01*
Y-8175D01*
X-7053D01*
Y-8360D01*
D02*
G37*
G36*
X-7134D02*
X-7165D01*
Y-8104D01*
X-7134D01*
Y-8360D01*
D02*
G37*
G36*
X-7297Y-8105D02*
X-7294D01*
X-7291Y-8105D01*
X-7287Y-8105D01*
X-7280Y-8106D01*
X-7272Y-8108D01*
X-7265Y-8110D01*
X-7257Y-8112D01*
X-7257D01*
X-7257Y-8113D01*
X-7256Y-8113D01*
X-7254Y-8114D01*
X-7251Y-8116D01*
X-7247Y-8118D01*
X-7243Y-8122D01*
X-7238Y-8126D01*
X-7234Y-8131D01*
X-7230Y-8136D01*
Y-8136D01*
X-7229Y-8137D01*
X-7229Y-8138D01*
X-7228Y-8139D01*
X-7227Y-8140D01*
X-7226Y-8142D01*
X-7224Y-8146D01*
X-7223Y-8151D01*
X-7221Y-8157D01*
X-7220Y-8163D01*
X-7219Y-8170D01*
Y-8170D01*
Y-8171D01*
Y-8172D01*
Y-8173D01*
X-7220Y-8176D01*
X-7221Y-8180D01*
X-7222Y-8185D01*
X-7223Y-8190D01*
X-7225Y-8195D01*
X-7229Y-8201D01*
Y-8201D01*
X-7229Y-8201D01*
X-7229Y-8202D01*
X-7230Y-8203D01*
X-7232Y-8206D01*
X-7235Y-8209D01*
X-7239Y-8213D01*
X-7243Y-8217D01*
X-7249Y-8220D01*
X-7255Y-8224D01*
X-7255D01*
X-7254Y-8224D01*
X-7253Y-8225D01*
X-7251Y-8225D01*
X-7249Y-8226D01*
X-7247Y-8227D01*
X-7242Y-8230D01*
X-7236Y-8233D01*
X-7230Y-8237D01*
X-7225Y-8241D01*
X-7220Y-8247D01*
X-7219Y-8248D01*
X-7219Y-8248D01*
X-7219Y-8249D01*
X-7218Y-8250D01*
X-7217Y-8252D01*
X-7216Y-8254D01*
X-7214Y-8256D01*
X-7213Y-8258D01*
X-7211Y-8264D01*
X-7209Y-8271D01*
X-7207Y-8278D01*
X-7207Y-8282D01*
Y-8286D01*
Y-8286D01*
Y-8287D01*
Y-8288D01*
Y-8289D01*
X-7207Y-8291D01*
Y-8292D01*
X-7208Y-8297D01*
X-7209Y-8302D01*
X-7210Y-8308D01*
X-7212Y-8314D01*
X-7215Y-8320D01*
Y-8320D01*
X-7215Y-8320D01*
X-7216Y-8321D01*
X-7216Y-8322D01*
X-7218Y-8325D01*
X-7220Y-8328D01*
X-7222Y-8332D01*
X-7226Y-8336D01*
X-7229Y-8340D01*
X-7234Y-8343D01*
X-7234Y-8344D01*
X-7235Y-8345D01*
X-7238Y-8346D01*
X-7241Y-8348D01*
X-7245Y-8350D01*
X-7250Y-8352D01*
X-7255Y-8354D01*
X-7261Y-8356D01*
X-7262D01*
X-7262Y-8356D01*
X-7263D01*
X-7265Y-8356D01*
X-7266Y-8357D01*
X-7268Y-8357D01*
X-7270Y-8358D01*
X-7273Y-8358D01*
X-7276Y-8358D01*
X-7279Y-8359D01*
X-7286Y-8359D01*
X-7294Y-8360D01*
X-7303Y-8360D01*
X-7400D01*
Y-8104D01*
X-7299D01*
X-7297Y-8105D01*
D02*
G37*
G36*
X-5636Y-8104D02*
X-5634Y-8104D01*
X-5629Y-8105D01*
X-5624Y-8105D01*
X-5618Y-8107D01*
X-5612Y-8109D01*
X-5606Y-8112D01*
X-5605D01*
X-5605Y-8112D01*
X-5604Y-8113D01*
X-5603Y-8113D01*
X-5600Y-8115D01*
X-5596Y-8118D01*
X-5592Y-8121D01*
X-5588Y-8125D01*
X-5584Y-8130D01*
X-5580Y-8136D01*
Y-8136D01*
X-5579Y-8137D01*
X-5579Y-8138D01*
X-5578Y-8139D01*
X-5577Y-8140D01*
X-5576Y-8142D01*
X-5575Y-8144D01*
X-5574Y-8146D01*
X-5572Y-8152D01*
X-5569Y-8158D01*
X-5566Y-8166D01*
X-5564Y-8174D01*
Y-8174D01*
X-5564Y-8175D01*
X-5563Y-8176D01*
X-5563Y-8178D01*
X-5563Y-8180D01*
X-5562Y-8183D01*
X-5562Y-8186D01*
X-5561Y-8190D01*
X-5561Y-8194D01*
X-5560Y-8198D01*
X-5560Y-8203D01*
X-5559Y-8208D01*
X-5559Y-8214D01*
X-5559Y-8220D01*
X-5558Y-8227D01*
Y-8234D01*
Y-8235D01*
Y-8236D01*
Y-8238D01*
Y-8241D01*
X-5559Y-8245D01*
X-5559Y-8249D01*
X-5559Y-8254D01*
X-5559Y-8260D01*
X-5560Y-8266D01*
X-5560Y-8271D01*
X-5562Y-8284D01*
X-5565Y-8295D01*
X-5566Y-8301D01*
X-5568Y-8307D01*
Y-8307D01*
X-5568Y-8308D01*
X-5568Y-8309D01*
X-5569Y-8311D01*
X-5570Y-8313D01*
X-5572Y-8316D01*
X-5573Y-8319D01*
X-5575Y-8322D01*
X-5578Y-8329D01*
X-5583Y-8336D01*
X-5589Y-8343D01*
X-5592Y-8346D01*
X-5595Y-8349D01*
X-5596Y-8349D01*
X-5596Y-8350D01*
X-5597Y-8351D01*
X-5599Y-8351D01*
X-5600Y-8353D01*
X-5603Y-8354D01*
X-5605Y-8355D01*
X-5608Y-8357D01*
X-5611Y-8358D01*
X-5615Y-8359D01*
X-5618Y-8361D01*
X-5622Y-8362D01*
X-5627Y-8363D01*
X-5632Y-8364D01*
X-5636Y-8364D01*
X-5642Y-8364D01*
X-5643D01*
X-5645Y-8364D01*
X-5648Y-8364D01*
X-5651Y-8363D01*
X-5654Y-8363D01*
X-5658Y-8362D01*
X-5663Y-8361D01*
X-5667Y-8359D01*
X-5672Y-8358D01*
X-5677Y-8356D01*
X-5681Y-8353D01*
X-5686Y-8350D01*
X-5691Y-8346D01*
X-5695Y-8343D01*
X-5699Y-8338D01*
X-5700Y-8338D01*
X-5701Y-8336D01*
X-5702Y-8335D01*
X-5703Y-8332D01*
X-5705Y-8328D01*
X-5708Y-8324D01*
X-5710Y-8319D01*
X-5712Y-8313D01*
X-5714Y-8306D01*
X-5717Y-8299D01*
X-5719Y-8290D01*
X-5721Y-8281D01*
X-5722Y-8270D01*
X-5724Y-8259D01*
X-5724Y-8247D01*
X-5725Y-8234D01*
Y-8233D01*
Y-8232D01*
Y-8230D01*
X-5724Y-8226D01*
Y-8223D01*
X-5724Y-8218D01*
X-5724Y-8213D01*
X-5724Y-8208D01*
X-5723Y-8202D01*
X-5722Y-8196D01*
X-5721Y-8184D01*
X-5719Y-8172D01*
X-5717Y-8166D01*
X-5716Y-8161D01*
Y-8161D01*
X-5715Y-8160D01*
X-5714Y-8158D01*
X-5714Y-8156D01*
X-5713Y-8154D01*
X-5712Y-8151D01*
X-5710Y-8149D01*
X-5709Y-8145D01*
X-5705Y-8138D01*
X-5700Y-8131D01*
X-5694Y-8125D01*
X-5691Y-8122D01*
X-5688Y-8118D01*
X-5688Y-8118D01*
X-5687Y-8118D01*
X-5686Y-8117D01*
X-5685Y-8116D01*
X-5683Y-8115D01*
X-5681Y-8114D01*
X-5678Y-8112D01*
X-5675Y-8111D01*
X-5672Y-8110D01*
X-5668Y-8108D01*
X-5665Y-8107D01*
X-5661Y-8106D01*
X-5656Y-8105D01*
X-5652Y-8104D01*
X-5647Y-8104D01*
X-5642Y-8104D01*
X-5638D01*
X-5636Y-8104D01*
D02*
G37*
G36*
X-6252Y-8171D02*
X-6249D01*
X-6246Y-8171D01*
X-6242Y-8172D01*
X-6238Y-8173D01*
X-6234Y-8174D01*
X-6229Y-8175D01*
X-6224Y-8177D01*
X-6219Y-8179D01*
X-6214Y-8181D01*
X-6209Y-8184D01*
X-6204Y-8188D01*
X-6199Y-8192D01*
X-6194Y-8196D01*
X-6194Y-8196D01*
X-6193Y-8197D01*
X-6192Y-8199D01*
X-6191Y-8201D01*
X-6189Y-8203D01*
X-6187Y-8206D01*
X-6185Y-8210D01*
X-6183Y-8214D01*
X-6181Y-8219D01*
X-6178Y-8224D01*
X-6176Y-8230D01*
X-6175Y-8236D01*
X-6173Y-8243D01*
X-6172Y-8251D01*
X-6171Y-8259D01*
X-6171Y-8267D01*
Y-8267D01*
Y-8269D01*
Y-8272D01*
X-6171Y-8275D01*
X-6309D01*
Y-8276D01*
Y-8277D01*
X-6309Y-8278D01*
X-6309Y-8280D01*
X-6309Y-8283D01*
X-6308Y-8286D01*
X-6308Y-8289D01*
X-6307Y-8293D01*
X-6304Y-8300D01*
X-6301Y-8308D01*
X-6299Y-8312D01*
X-6298Y-8316D01*
X-6295Y-8319D01*
X-6292Y-8322D01*
X-6292Y-8323D01*
X-6291Y-8323D01*
X-6291Y-8324D01*
X-6290Y-8325D01*
X-6288Y-8326D01*
X-6286Y-8327D01*
X-6284Y-8329D01*
X-6281Y-8330D01*
X-6276Y-8333D01*
X-6269Y-8336D01*
X-6266Y-8337D01*
X-6262Y-8338D01*
X-6258Y-8338D01*
X-6253Y-8338D01*
X-6252D01*
X-6251Y-8338D01*
X-6247Y-8338D01*
X-6243Y-8337D01*
X-6239Y-8336D01*
X-6234Y-8335D01*
X-6229Y-8333D01*
X-6224Y-8330D01*
X-6224D01*
X-6224Y-8329D01*
X-6222Y-8328D01*
X-6220Y-8326D01*
X-6217Y-8322D01*
X-6214Y-8318D01*
X-6211Y-8313D01*
X-6208Y-8307D01*
X-6205Y-8300D01*
X-6172Y-8304D01*
Y-8305D01*
X-6172Y-8306D01*
X-6173Y-8307D01*
X-6174Y-8309D01*
X-6175Y-8312D01*
X-6176Y-8314D01*
X-6177Y-8317D01*
X-6178Y-8321D01*
X-6182Y-8328D01*
X-6187Y-8335D01*
X-6190Y-8339D01*
X-6193Y-8342D01*
X-6197Y-8346D01*
X-6201Y-8349D01*
X-6201Y-8349D01*
X-6201Y-8349D01*
X-6203Y-8350D01*
X-6204Y-8351D01*
X-6206Y-8352D01*
X-6209Y-8354D01*
X-6212Y-8355D01*
X-6215Y-8356D01*
X-6219Y-8358D01*
X-6223Y-8359D01*
X-6227Y-8361D01*
X-6232Y-8362D01*
X-6237Y-8363D01*
X-6242Y-8364D01*
X-6248Y-8364D01*
X-6253Y-8364D01*
X-6255D01*
X-6257Y-8364D01*
X-6260D01*
X-6264Y-8363D01*
X-6268Y-8363D01*
X-6272Y-8362D01*
X-6277Y-8361D01*
X-6282Y-8360D01*
X-6287Y-8358D01*
X-6293Y-8356D01*
X-6298Y-8354D01*
X-6303Y-8351D01*
X-6308Y-8348D01*
X-6313Y-8344D01*
X-6318Y-8339D01*
X-6318Y-8339D01*
X-6319Y-8338D01*
X-6320Y-8337D01*
X-6322Y-8335D01*
X-6324Y-8332D01*
X-6326Y-8329D01*
X-6328Y-8325D01*
X-6330Y-8321D01*
X-6332Y-8317D01*
X-6334Y-8311D01*
X-6336Y-8305D01*
X-6338Y-8299D01*
X-6339Y-8292D01*
X-6340Y-8285D01*
X-6341Y-8277D01*
X-6342Y-8269D01*
Y-8269D01*
Y-8267D01*
X-6341Y-8265D01*
Y-8261D01*
X-6341Y-8258D01*
X-6340Y-8253D01*
X-6340Y-8248D01*
X-6339Y-8243D01*
X-6337Y-8237D01*
X-6336Y-8231D01*
X-6334Y-8225D01*
X-6332Y-8219D01*
X-6329Y-8213D01*
X-6326Y-8207D01*
X-6322Y-8202D01*
X-6318Y-8197D01*
X-6317Y-8196D01*
X-6317Y-8195D01*
X-6315Y-8194D01*
X-6313Y-8192D01*
X-6311Y-8190D01*
X-6308Y-8188D01*
X-6305Y-8186D01*
X-6301Y-8184D01*
X-6297Y-8181D01*
X-6292Y-8179D01*
X-6287Y-8177D01*
X-6281Y-8175D01*
X-6275Y-8173D01*
X-6269Y-8172D01*
X-6262Y-8171D01*
X-6255Y-8171D01*
X-6253D01*
X-6252Y-8171D01*
D02*
G37*
%LPC*%
G36*
X-6886Y-8537D02*
X-6888D01*
X-6890Y-8537D01*
X-6891Y-8537D01*
X-6894Y-8537D01*
X-6898Y-8539D01*
X-6904Y-8541D01*
X-6907Y-8542D01*
X-6910Y-8544D01*
X-6913Y-8546D01*
X-6916Y-8548D01*
X-6919Y-8551D01*
X-6921Y-8554D01*
X-6922Y-8554D01*
X-6922Y-8555D01*
X-6923Y-8556D01*
X-6924Y-8557D01*
X-6925Y-8559D01*
X-6926Y-8561D01*
X-6927Y-8564D01*
X-6928Y-8567D01*
X-6930Y-8570D01*
X-6931Y-8575D01*
X-6932Y-8579D01*
X-6933Y-8584D01*
X-6934Y-8589D01*
X-6935Y-8595D01*
X-6935Y-8601D01*
X-6935Y-8608D01*
Y-8608D01*
Y-8609D01*
Y-8611D01*
X-6935Y-8614D01*
X-6935Y-8617D01*
X-6934Y-8620D01*
X-6934Y-8624D01*
X-6933Y-8628D01*
X-6932Y-8636D01*
X-6929Y-8645D01*
X-6927Y-8649D01*
X-6925Y-8653D01*
X-6923Y-8657D01*
X-6920Y-8661D01*
X-6920Y-8661D01*
X-6920Y-8662D01*
X-6919Y-8663D01*
X-6917Y-8664D01*
X-6916Y-8665D01*
X-6914Y-8666D01*
X-6910Y-8670D01*
X-6905Y-8673D01*
X-6899Y-8676D01*
X-6896Y-8677D01*
X-6892Y-8678D01*
X-6889Y-8678D01*
X-6885Y-8678D01*
X-6883D01*
X-6881Y-8678D01*
X-6879Y-8678D01*
X-6877Y-8678D01*
X-6873Y-8676D01*
X-6867Y-8674D01*
X-6864Y-8673D01*
X-6861Y-8671D01*
X-6858Y-8670D01*
X-6855Y-8667D01*
X-6852Y-8665D01*
X-6850Y-8662D01*
X-6849Y-8662D01*
X-6849Y-8661D01*
X-6848Y-8660D01*
X-6847Y-8658D01*
X-6846Y-8657D01*
X-6845Y-8655D01*
X-6843Y-8652D01*
X-6842Y-8649D01*
X-6841Y-8646D01*
X-6840Y-8642D01*
X-6838Y-8637D01*
X-6837Y-8633D01*
X-6836Y-8628D01*
X-6835Y-8622D01*
X-6835Y-8617D01*
X-6835Y-8610D01*
Y-8610D01*
Y-8609D01*
Y-8607D01*
X-6835Y-8604D01*
X-6835Y-8601D01*
X-6836Y-8597D01*
X-6836Y-8593D01*
X-6837Y-8589D01*
X-6838Y-8580D01*
X-6841Y-8571D01*
X-6843Y-8566D01*
X-6845Y-8562D01*
X-6847Y-8558D01*
X-6850Y-8555D01*
X-6850Y-8554D01*
X-6850Y-8554D01*
X-6851Y-8553D01*
X-6852Y-8552D01*
X-6854Y-8550D01*
X-6856Y-8549D01*
X-6860Y-8545D01*
X-6865Y-8542D01*
X-6871Y-8539D01*
X-6875Y-8538D01*
X-6878Y-8537D01*
X-6882Y-8537D01*
X-6886Y-8537D01*
D02*
G37*
G36*
X-7300Y-8475D02*
X-7356D01*
Y-8552D01*
X-7296D01*
X-7293Y-8552D01*
X-7289D01*
X-7283Y-8551D01*
X-7278Y-8551D01*
X-7273Y-8550D01*
X-7271Y-8550D01*
X-7269Y-8549D01*
X-7268D01*
X-7268Y-8549D01*
X-7266Y-8548D01*
X-7264Y-8547D01*
X-7261Y-8546D01*
X-7258Y-8544D01*
X-7255Y-8542D01*
X-7252Y-8539D01*
X-7249Y-8536D01*
X-7249Y-8536D01*
X-7248Y-8535D01*
X-7247Y-8533D01*
X-7246Y-8530D01*
X-7245Y-8527D01*
X-7244Y-8523D01*
X-7243Y-8519D01*
X-7243Y-8514D01*
Y-8514D01*
Y-8513D01*
Y-8512D01*
X-7243Y-8509D01*
X-7243Y-8506D01*
X-7244Y-8503D01*
X-7245Y-8499D01*
X-7247Y-8495D01*
X-7249Y-8491D01*
X-7249Y-8491D01*
X-7250Y-8490D01*
X-7251Y-8488D01*
X-7253Y-8486D01*
X-7256Y-8484D01*
X-7259Y-8482D01*
X-7262Y-8480D01*
X-7266Y-8478D01*
X-7267Y-8478D01*
X-7268D01*
X-7269Y-8478D01*
X-7270Y-8477D01*
X-7271Y-8477D01*
X-7273Y-8477D01*
X-7275Y-8476D01*
X-7278Y-8476D01*
X-7281Y-8476D01*
X-7284Y-8475D01*
X-7288Y-8475D01*
X-7291Y-8475D01*
X-7296D01*
X-7300Y-8475D01*
D02*
G37*
G36*
X-7297Y-8582D02*
X-7356D01*
Y-8670D01*
X-7287D01*
X-7283Y-8670D01*
X-7280D01*
X-7276Y-8669D01*
X-7272Y-8669D01*
X-7270Y-8669D01*
X-7269D01*
X-7268Y-8668D01*
X-7265Y-8668D01*
X-7263Y-8667D01*
X-7260Y-8666D01*
X-7256Y-8665D01*
X-7253Y-8663D01*
X-7250Y-8662D01*
X-7250Y-8662D01*
X-7249Y-8661D01*
X-7247Y-8660D01*
X-7245Y-8658D01*
X-7243Y-8656D01*
X-7241Y-8654D01*
X-7239Y-8651D01*
X-7237Y-8648D01*
X-7237Y-8647D01*
X-7236Y-8646D01*
X-7235Y-8644D01*
X-7234Y-8641D01*
X-7233Y-8638D01*
X-7233Y-8635D01*
X-7232Y-8630D01*
X-7232Y-8626D01*
Y-8626D01*
Y-8625D01*
Y-8625D01*
Y-8624D01*
X-7232Y-8621D01*
X-7233Y-8617D01*
X-7234Y-8614D01*
X-7235Y-8609D01*
X-7237Y-8605D01*
X-7239Y-8601D01*
X-7240Y-8601D01*
X-7241Y-8599D01*
X-7242Y-8598D01*
X-7245Y-8595D01*
X-7248Y-8593D01*
X-7251Y-8591D01*
X-7255Y-8588D01*
X-7260Y-8586D01*
X-7260D01*
X-7260Y-8586D01*
X-7261Y-8586D01*
X-7262Y-8586D01*
X-7264Y-8585D01*
X-7265Y-8585D01*
X-7267Y-8584D01*
X-7269Y-8584D01*
X-7272Y-8584D01*
X-7275Y-8583D01*
X-7278Y-8583D01*
X-7281Y-8583D01*
X-7289Y-8582D01*
X-7297Y-8582D01*
D02*
G37*
G36*
X-5627Y-8469D02*
X-5632D01*
X-5634Y-8470D01*
X-5635D01*
X-5637Y-8470D01*
X-5641Y-8471D01*
X-5646Y-8472D01*
X-5651Y-8474D01*
X-5656Y-8477D01*
X-5660Y-8481D01*
X-5661Y-8481D01*
X-5662Y-8483D01*
X-5664Y-8485D01*
X-5666Y-8489D01*
X-5668Y-8493D01*
X-5670Y-8497D01*
X-5671Y-8503D01*
X-5672Y-8508D01*
Y-8509D01*
Y-8509D01*
Y-8510D01*
X-5672Y-8511D01*
Y-8513D01*
X-5671Y-8515D01*
X-5671Y-8519D01*
X-5669Y-8524D01*
X-5667Y-8529D01*
X-5665Y-8534D01*
X-5661Y-8538D01*
X-5660Y-8539D01*
X-5658Y-8540D01*
X-5656Y-8542D01*
X-5652Y-8543D01*
X-5648Y-8546D01*
X-5643Y-8548D01*
X-5637Y-8549D01*
X-5630Y-8549D01*
X-5629D01*
X-5627Y-8549D01*
X-5626D01*
X-5624Y-8549D01*
X-5620Y-8548D01*
X-5615Y-8547D01*
X-5610Y-8545D01*
X-5605Y-8542D01*
X-5600Y-8538D01*
X-5600Y-8537D01*
X-5598Y-8536D01*
X-5597Y-8534D01*
X-5594Y-8530D01*
X-5592Y-8526D01*
X-5591Y-8521D01*
X-5589Y-8516D01*
X-5589Y-8510D01*
Y-8510D01*
Y-8509D01*
Y-8509D01*
X-5589Y-8507D01*
X-5589Y-8504D01*
X-5590Y-8500D01*
X-5591Y-8496D01*
X-5594Y-8491D01*
X-5597Y-8486D01*
X-5598Y-8483D01*
X-5601Y-8481D01*
Y-8481D01*
X-5601Y-8481D01*
X-5603Y-8479D01*
X-5605Y-8477D01*
X-5609Y-8475D01*
X-5613Y-8473D01*
X-5618Y-8471D01*
X-5624Y-8470D01*
X-5627Y-8469D01*
D02*
G37*
G36*
X-5631Y-8575D02*
X-5633D01*
X-5635Y-8575D01*
X-5637Y-8576D01*
X-5639Y-8576D01*
X-5644Y-8577D01*
X-5650Y-8579D01*
X-5656Y-8581D01*
X-5659Y-8583D01*
X-5662Y-8585D01*
X-5665Y-8587D01*
X-5668Y-8590D01*
X-5668Y-8590D01*
X-5668Y-8590D01*
X-5669Y-8591D01*
X-5670Y-8592D01*
X-5671Y-8594D01*
X-5672Y-8596D01*
X-5674Y-8598D01*
X-5675Y-8600D01*
X-5678Y-8605D01*
X-5680Y-8611D01*
X-5682Y-8619D01*
X-5682Y-8622D01*
X-5682Y-8626D01*
Y-8627D01*
Y-8627D01*
Y-8629D01*
X-5682Y-8631D01*
X-5681Y-8635D01*
X-5681Y-8639D01*
X-5680Y-8643D01*
X-5678Y-8648D01*
X-5676Y-8652D01*
X-5676Y-8653D01*
X-5675Y-8654D01*
X-5673Y-8657D01*
X-5671Y-8660D01*
X-5669Y-8663D01*
X-5666Y-8666D01*
X-5662Y-8669D01*
X-5657Y-8672D01*
X-5657D01*
X-5657Y-8672D01*
X-5655Y-8673D01*
X-5653Y-8674D01*
X-5649Y-8675D01*
X-5645Y-8676D01*
X-5640Y-8677D01*
X-5635Y-8678D01*
X-5630Y-8678D01*
X-5628D01*
X-5626Y-8678D01*
X-5624Y-8678D01*
X-5622Y-8678D01*
X-5617Y-8676D01*
X-5611Y-8675D01*
X-5605Y-8672D01*
X-5602Y-8671D01*
X-5599Y-8669D01*
X-5596Y-8666D01*
X-5593Y-8664D01*
X-5593Y-8664D01*
X-5592Y-8663D01*
X-5591Y-8663D01*
X-5591Y-8662D01*
X-5590Y-8660D01*
X-5588Y-8658D01*
X-5587Y-8656D01*
X-5585Y-8654D01*
X-5583Y-8649D01*
X-5580Y-8642D01*
X-5579Y-8635D01*
X-5578Y-8632D01*
X-5578Y-8627D01*
Y-8627D01*
Y-8626D01*
Y-8625D01*
X-5578Y-8624D01*
X-5579Y-8622D01*
X-5579Y-8619D01*
X-5580Y-8614D01*
X-5582Y-8608D01*
X-5585Y-8602D01*
X-5586Y-8599D01*
X-5588Y-8596D01*
X-5591Y-8593D01*
X-5593Y-8590D01*
X-5594Y-8590D01*
X-5594Y-8589D01*
X-5595Y-8589D01*
X-5596Y-8588D01*
X-5598Y-8586D01*
X-5599Y-8585D01*
X-5601Y-8584D01*
X-5604Y-8583D01*
X-5609Y-8580D01*
X-5616Y-8577D01*
X-5623Y-8576D01*
X-5627Y-8575D01*
X-5631Y-8575D01*
D02*
G37*
G36*
X-6028Y-8470D02*
X-6030D01*
X-6032Y-8470D01*
X-6034Y-8470D01*
X-6036Y-8470D01*
X-6041Y-8472D01*
X-6046Y-8474D01*
X-6049Y-8475D01*
X-6052Y-8477D01*
X-6055Y-8479D01*
X-6058Y-8482D01*
X-6060Y-8484D01*
X-6063Y-8488D01*
X-6063Y-8488D01*
X-6063Y-8489D01*
X-6064Y-8490D01*
X-6065Y-8493D01*
X-6066Y-8495D01*
X-6068Y-8499D01*
X-6070Y-8503D01*
X-6071Y-8507D01*
X-6072Y-8513D01*
X-6074Y-8519D01*
X-6075Y-8526D01*
X-6076Y-8534D01*
X-6078Y-8543D01*
X-6078Y-8552D01*
X-6079Y-8563D01*
X-6079Y-8574D01*
Y-8574D01*
Y-8575D01*
Y-8576D01*
Y-8577D01*
Y-8578D01*
Y-8580D01*
X-6079Y-8584D01*
X-6078Y-8589D01*
X-6078Y-8595D01*
X-6078Y-8601D01*
X-6077Y-8608D01*
X-6075Y-8622D01*
X-6074Y-8629D01*
X-6073Y-8636D01*
X-6071Y-8642D01*
X-6069Y-8648D01*
X-6067Y-8653D01*
X-6064Y-8658D01*
X-6064Y-8658D01*
X-6064Y-8659D01*
X-6063Y-8660D01*
X-6062Y-8661D01*
X-6060Y-8663D01*
X-6058Y-8664D01*
X-6054Y-8668D01*
X-6049Y-8672D01*
X-6043Y-8675D01*
X-6039Y-8676D01*
X-6036Y-8678D01*
X-6032Y-8678D01*
X-6028Y-8678D01*
X-6027D01*
X-6026Y-8678D01*
X-6024D01*
X-6022Y-8678D01*
X-6020Y-8677D01*
X-6015Y-8676D01*
X-6012Y-8675D01*
X-6010Y-8673D01*
X-6007Y-8672D01*
X-6004Y-8670D01*
X-6001Y-8667D01*
X-5998Y-8665D01*
X-5994Y-8661D01*
X-5992Y-8658D01*
X-5991Y-8657D01*
X-5991Y-8657D01*
X-5990Y-8655D01*
X-5989Y-8653D01*
X-5988Y-8651D01*
X-5987Y-8648D01*
X-5986Y-8644D01*
X-5984Y-8639D01*
X-5983Y-8634D01*
X-5981Y-8628D01*
X-5980Y-8621D01*
X-5979Y-8614D01*
X-5978Y-8605D01*
X-5977Y-8596D01*
X-5977Y-8585D01*
X-5977Y-8574D01*
Y-8574D01*
Y-8573D01*
Y-8572D01*
Y-8571D01*
Y-8570D01*
Y-8568D01*
X-5977Y-8564D01*
X-5977Y-8559D01*
X-5978Y-8553D01*
X-5978Y-8547D01*
X-5979Y-8540D01*
X-5980Y-8526D01*
X-5982Y-8519D01*
X-5983Y-8512D01*
X-5985Y-8506D01*
X-5987Y-8500D01*
X-5989Y-8495D01*
X-5992Y-8490D01*
X-5992Y-8490D01*
X-5992Y-8489D01*
X-5993Y-8488D01*
X-5994Y-8487D01*
X-5996Y-8486D01*
X-5998Y-8484D01*
X-5999Y-8482D01*
X-6002Y-8480D01*
X-6007Y-8476D01*
X-6013Y-8473D01*
X-6017Y-8471D01*
X-6021Y-8470D01*
X-6024Y-8470D01*
X-6028Y-8470D01*
D02*
G37*
G36*
X-7310Y-8135D02*
X-7366D01*
Y-8212D01*
X-7306D01*
X-7303Y-8212D01*
X-7299D01*
X-7293Y-8211D01*
X-7288Y-8211D01*
X-7283Y-8210D01*
X-7281Y-8210D01*
X-7279Y-8209D01*
X-7278D01*
X-7278Y-8209D01*
X-7276Y-8208D01*
X-7274Y-8207D01*
X-7271Y-8206D01*
X-7268Y-8204D01*
X-7265Y-8202D01*
X-7262Y-8199D01*
X-7259Y-8196D01*
X-7259Y-8196D01*
X-7258Y-8195D01*
X-7257Y-8193D01*
X-7256Y-8190D01*
X-7255Y-8187D01*
X-7254Y-8183D01*
X-7253Y-8179D01*
X-7253Y-8174D01*
Y-8174D01*
Y-8173D01*
Y-8172D01*
X-7253Y-8169D01*
X-7253Y-8166D01*
X-7254Y-8163D01*
X-7255Y-8159D01*
X-7257Y-8155D01*
X-7259Y-8151D01*
X-7259Y-8151D01*
X-7260Y-8150D01*
X-7261Y-8148D01*
X-7263Y-8146D01*
X-7266Y-8144D01*
X-7269Y-8142D01*
X-7272Y-8140D01*
X-7276Y-8138D01*
X-7277Y-8138D01*
X-7278D01*
X-7279Y-8138D01*
X-7280Y-8137D01*
X-7281Y-8137D01*
X-7283Y-8137D01*
X-7285Y-8136D01*
X-7288Y-8136D01*
X-7291Y-8136D01*
X-7294Y-8135D01*
X-7298Y-8135D01*
X-7301Y-8135D01*
X-7306D01*
X-7310Y-8135D01*
D02*
G37*
G36*
X-7307Y-8242D02*
X-7366D01*
Y-8330D01*
X-7297D01*
X-7293Y-8330D01*
X-7290D01*
X-7286Y-8329D01*
X-7282Y-8329D01*
X-7280Y-8329D01*
X-7279D01*
X-7278Y-8328D01*
X-7275Y-8328D01*
X-7273Y-8327D01*
X-7270Y-8326D01*
X-7266Y-8325D01*
X-7263Y-8323D01*
X-7260Y-8322D01*
X-7260Y-8321D01*
X-7259Y-8321D01*
X-7257Y-8320D01*
X-7255Y-8318D01*
X-7253Y-8316D01*
X-7251Y-8314D01*
X-7249Y-8311D01*
X-7247Y-8308D01*
X-7247Y-8307D01*
X-7246Y-8306D01*
X-7245Y-8304D01*
X-7244Y-8301D01*
X-7243Y-8298D01*
X-7243Y-8295D01*
X-7242Y-8290D01*
X-7242Y-8286D01*
Y-8286D01*
Y-8285D01*
Y-8285D01*
Y-8284D01*
X-7242Y-8281D01*
X-7243Y-8277D01*
X-7244Y-8274D01*
X-7245Y-8269D01*
X-7247Y-8265D01*
X-7249Y-8261D01*
X-7250Y-8261D01*
X-7251Y-8259D01*
X-7252Y-8258D01*
X-7255Y-8255D01*
X-7258Y-8253D01*
X-7261Y-8251D01*
X-7265Y-8248D01*
X-7270Y-8246D01*
X-7270D01*
X-7270Y-8246D01*
X-7271Y-8246D01*
X-7272Y-8246D01*
X-7274Y-8245D01*
X-7275Y-8245D01*
X-7277Y-8244D01*
X-7279Y-8244D01*
X-7282Y-8244D01*
X-7285Y-8243D01*
X-7288Y-8243D01*
X-7291Y-8243D01*
X-7299Y-8242D01*
X-7307Y-8242D01*
D02*
G37*
G36*
X-5642Y-8130D02*
X-5644D01*
X-5645Y-8130D01*
X-5647Y-8130D01*
X-5649Y-8130D01*
X-5654Y-8132D01*
X-5660Y-8134D01*
X-5663Y-8135D01*
X-5666Y-8137D01*
X-5668Y-8139D01*
X-5671Y-8142D01*
X-5674Y-8144D01*
X-5677Y-8148D01*
X-5677Y-8148D01*
X-5677Y-8149D01*
X-5678Y-8150D01*
X-5679Y-8153D01*
X-5680Y-8155D01*
X-5681Y-8159D01*
X-5683Y-8163D01*
X-5685Y-8167D01*
X-5686Y-8173D01*
X-5688Y-8179D01*
X-5689Y-8186D01*
X-5690Y-8194D01*
X-5691Y-8203D01*
X-5692Y-8212D01*
X-5692Y-8223D01*
X-5693Y-8234D01*
Y-8234D01*
Y-8235D01*
Y-8236D01*
Y-8237D01*
Y-8238D01*
Y-8240D01*
X-5692Y-8244D01*
X-5692Y-8249D01*
X-5692Y-8255D01*
X-5691Y-8261D01*
X-5691Y-8268D01*
X-5689Y-8282D01*
X-5688Y-8289D01*
X-5686Y-8296D01*
X-5685Y-8302D01*
X-5683Y-8308D01*
X-5680Y-8313D01*
X-5678Y-8318D01*
X-5678Y-8318D01*
X-5677Y-8319D01*
X-5677Y-8320D01*
X-5675Y-8321D01*
X-5674Y-8323D01*
X-5672Y-8324D01*
X-5668Y-8328D01*
X-5663Y-8332D01*
X-5656Y-8335D01*
X-5653Y-8336D01*
X-5649Y-8338D01*
X-5645Y-8338D01*
X-5642Y-8338D01*
X-5641D01*
X-5639Y-8338D01*
X-5638D01*
X-5636Y-8338D01*
X-5634Y-8337D01*
X-5629Y-8336D01*
X-5626Y-8335D01*
X-5623Y-8333D01*
X-5620Y-8332D01*
X-5617Y-8330D01*
X-5614Y-8327D01*
X-5611Y-8325D01*
X-5608Y-8321D01*
X-5605Y-8318D01*
X-5605Y-8317D01*
X-5605Y-8317D01*
X-5604Y-8315D01*
X-5603Y-8313D01*
X-5602Y-8311D01*
X-5601Y-8308D01*
X-5599Y-8304D01*
X-5598Y-8299D01*
X-5596Y-8294D01*
X-5595Y-8288D01*
X-5594Y-8281D01*
X-5593Y-8274D01*
X-5592Y-8265D01*
X-5591Y-8256D01*
X-5591Y-8245D01*
X-5590Y-8234D01*
Y-8234D01*
Y-8233D01*
Y-8232D01*
Y-8231D01*
Y-8230D01*
Y-8228D01*
X-5591Y-8224D01*
X-5591Y-8219D01*
X-5591Y-8213D01*
X-5591Y-8207D01*
X-5592Y-8200D01*
X-5594Y-8186D01*
X-5595Y-8179D01*
X-5597Y-8172D01*
X-5598Y-8166D01*
X-5600Y-8160D01*
X-5603Y-8155D01*
X-5605Y-8150D01*
X-5606Y-8150D01*
X-5606Y-8149D01*
X-5607Y-8148D01*
X-5608Y-8147D01*
X-5609Y-8146D01*
X-5611Y-8144D01*
X-5613Y-8142D01*
X-5615Y-8140D01*
X-5621Y-8136D01*
X-5627Y-8133D01*
X-5630Y-8131D01*
X-5634Y-8130D01*
X-5638Y-8130D01*
X-5642Y-8130D01*
D02*
G37*
G36*
X-6255Y-8196D02*
X-6257D01*
X-6259Y-8197D01*
X-6261Y-8197D01*
X-6263Y-8197D01*
X-6268Y-8198D01*
X-6273Y-8200D01*
X-6280Y-8202D01*
X-6283Y-8204D01*
X-6286Y-8206D01*
X-6289Y-8208D01*
X-6292Y-8211D01*
X-6292Y-8211D01*
X-6292Y-8212D01*
X-6293Y-8212D01*
X-6294Y-8213D01*
X-6295Y-8215D01*
X-6296Y-8217D01*
X-6298Y-8219D01*
X-6299Y-8221D01*
X-6301Y-8224D01*
X-6302Y-8227D01*
X-6305Y-8233D01*
X-6307Y-8241D01*
X-6307Y-8245D01*
X-6308Y-8249D01*
X-6204D01*
Y-8249D01*
Y-8248D01*
X-6204Y-8247D01*
X-6205Y-8246D01*
X-6205Y-8244D01*
X-6205Y-8241D01*
X-6206Y-8236D01*
X-6208Y-8231D01*
X-6210Y-8225D01*
X-6213Y-8219D01*
X-6216Y-8215D01*
X-6216Y-8214D01*
X-6217Y-8214D01*
X-6218Y-8213D01*
X-6219Y-8212D01*
X-6220Y-8210D01*
X-6222Y-8209D01*
X-6224Y-8207D01*
X-6227Y-8205D01*
X-6229Y-8204D01*
X-6232Y-8202D01*
X-6239Y-8199D01*
X-6243Y-8198D01*
X-6247Y-8197D01*
X-6251Y-8197D01*
X-6255Y-8196D01*
D02*
G37*
%LPD*%
D10*
X-20Y6685D02*
G03*
X-20Y6685I-50J0D01*
G01*
Y7285D02*
G03*
X-20Y7285I-50J0D01*
G01*
X6675Y60D02*
G03*
X6675Y60I-50J0D01*
G01*
X7275D02*
G03*
X7275Y60I-50J0D01*
G01*
X60Y-6675D02*
G03*
X60Y-6675I-50J0D01*
G01*
Y-7275D02*
G03*
X60Y-7275I-50J0D01*
G01*
X-6645Y-40D02*
G03*
X-6645Y-40I-50J0D01*
G01*
X-7245D02*
G03*
X-7245Y-40I-50J0D01*
G01*
X6100Y-7570D02*
X6000Y-7470D01*
X5800D01*
X5700Y-7570D01*
Y-7970D01*
X5800Y-8070D01*
X6000D01*
X6100Y-7970D01*
X6300Y-8070D02*
Y-7670D01*
X6500Y-7470D01*
X6700Y-7670D01*
Y-8070D01*
Y-7770D01*
X6300D01*
X6900Y-8070D02*
Y-7470D01*
X7299Y-8070D01*
Y-7470D01*
X5630Y-6590D02*
Y-6690D01*
X5830Y-6890D01*
X6030Y-6690D01*
Y-6590D01*
X5830Y-6890D02*
Y-7190D01*
X6530Y-6590D02*
X6330D01*
X6230Y-6690D01*
Y-7090D01*
X6330Y-7190D01*
X6530D01*
X6630Y-7090D01*
Y-6690D01*
X6530Y-6590D01*
X6830D02*
Y-7090D01*
X6930Y-7190D01*
X7130D01*
X7229Y-7090D01*
Y-6590D01*
X5400Y-5740D02*
Y-6340D01*
X5600Y-6140D01*
X5800Y-6340D01*
Y-5740D01*
X6000D02*
Y-6340D01*
Y-6040D01*
X6400D01*
Y-5740D01*
Y-6340D01*
X6600D02*
Y-5940D01*
X6800Y-5740D01*
X6999Y-5940D01*
Y-6340D01*
Y-6040D01*
X6600D01*
X7199Y-5740D02*
X7599D01*
X7399D01*
Y-6340D01*
X4870Y-5490D02*
Y-4890D01*
X5170D01*
X5270Y-4990D01*
Y-5190D01*
X5170Y-5290D01*
X4870D01*
X5070D02*
X5270Y-5490D01*
X5870Y-4890D02*
X5470D01*
Y-5490D01*
X5870D01*
X5470Y-5190D02*
X5670D01*
X6469Y-4990D02*
X6370Y-4890D01*
X6170D01*
X6070Y-4990D01*
Y-5390D01*
X6170Y-5490D01*
X6370D01*
X6469Y-5390D01*
X6669Y-5490D02*
Y-5090D01*
X6869Y-4890D01*
X7069Y-5090D01*
Y-5490D01*
Y-5190D01*
X6669D01*
X7269Y-4890D02*
Y-5490D01*
X7669D01*
X7869Y-4890D02*
Y-5490D01*
X8269D01*
X-8130Y4730D02*
Y5130D01*
X-7930D01*
X-7863Y5063D01*
Y4930D01*
X-7930Y4863D01*
X-8130D01*
X-7997D02*
X-7863Y4730D01*
X-7464Y5130D02*
X-7730D01*
Y4730D01*
X-7464D01*
X-7730Y4930D02*
X-7597D01*
X-7064Y5063D02*
X-7130Y5130D01*
X-7264D01*
X-7330Y5063D01*
Y4997D01*
X-7264Y4930D01*
X-7130D01*
X-7064Y4863D01*
Y4797D01*
X-7130Y4730D01*
X-7264D01*
X-7330Y4797D01*
X-6664Y5130D02*
X-6930D01*
Y4730D01*
X-6664D01*
X-6930Y4930D02*
X-6797D01*
X-6531Y5130D02*
X-6264D01*
X-6397D01*
Y4730D01*
D11*
X-7720Y5490D02*
X-6720D01*
X-7720D02*
Y7490D01*
X-6720D01*
Y5490D02*
Y7490D01*
D12*
X7559Y7561D02*
Y8159D01*
X6961Y7561D02*
X7559D01*
X6961Y8159D02*
X7559D01*
X6961Y7561D02*
Y8159D01*
X7911Y8184D02*
X8509D01*
Y7586D02*
Y8184D01*
X7911Y7586D02*
Y8184D01*
Y7586D02*
X8509D01*
X-2137Y741D02*
X-1691Y1187D01*
X-2499Y1103D02*
X-2053Y1549D01*
X5265Y7816D02*
X5895D01*
X5265Y7304D02*
X5895D01*
X2330Y5685D02*
Y8285D01*
X-2470D02*
X2330D01*
X-2470Y5685D02*
Y8285D01*
Y5685D02*
X2330D01*
X-1270Y6085D02*
X1130D01*
X-1270Y7885D02*
X1130D01*
X-70Y7285D02*
Y7885D01*
Y6085D02*
Y6685D01*
X-270D02*
Y7285D01*
X-670Y6985D02*
X-270D01*
X-5305Y2106D02*
X-4675D01*
X-5305Y1594D02*
X-4675D01*
X1715Y5166D02*
X2345D01*
X1715Y4654D02*
X2345D01*
X4495Y-2006D02*
X5125D01*
X4495Y-1494D02*
X5125D01*
X5625Y-2340D02*
X8225D01*
Y2460D01*
X5625D02*
X8225D01*
X5625Y-2340D02*
Y2460D01*
X6025Y-1140D02*
Y1260D01*
X7825Y-1140D02*
Y1260D01*
X7225Y60D02*
X7825D01*
X6025D02*
X6625D01*
Y260D02*
X7225D01*
X6925D02*
Y660D01*
X-1896Y-5205D02*
Y-4575D01*
X-1384Y-5205D02*
Y-4575D01*
X-2390Y-5675D02*
X-2390Y-8275D01*
X2410D01*
Y-5675D01*
X-2390Y-5675D02*
X2410Y-5675D01*
X-1190Y-6075D02*
X1210D01*
X-1190Y-7875D02*
X1210D01*
X10D02*
Y-7275D01*
Y-6675D02*
Y-6075D01*
X210Y-7275D02*
Y-6675D01*
Y-6975D02*
X610Y-6975D01*
X-2497Y1881D02*
X-2051Y2327D01*
X-2859Y2243D02*
X-2413Y2689D01*
X-3334Y2198D02*
X-2372Y3159D01*
X-4182Y3046D02*
X-3221Y4008D01*
X-3016Y-1065D02*
Y-435D01*
X-2504Y-1065D02*
Y-435D01*
X-3420Y-820D02*
Y540D01*
X-4620Y-820D02*
Y540D01*
X-3329Y-2482D02*
X-2368Y-3444D01*
X-4178Y-3331D02*
X-3216Y-4292D01*
X-2422Y-2216D02*
X-1976Y-2662D01*
X-2784Y-2578D02*
X-2338Y-3024D01*
X-700Y3240D02*
X660D01*
X-700Y4440D02*
X660D01*
X2318Y3174D02*
X3279Y2212D01*
X3166Y4022D02*
X4128Y3061D01*
X2574Y-325D02*
Y305D01*
X3086D02*
X3086Y-325D01*
X2136Y-2612D02*
X2582Y-2166D01*
X2498Y-2974D02*
X2944Y-2528D01*
X-215Y-2734D02*
X415D01*
X-215Y-3246D02*
X415D01*
X-700Y-3540D02*
X660D01*
X-700Y-4740D02*
X660D01*
X-365Y2474D02*
X265D01*
X-365Y2986D02*
X265Y2986D01*
X2031Y2367D02*
X2477Y1921D01*
X2393Y2729D02*
X2839Y2283D01*
X3380Y-820D02*
Y540D01*
X4580Y-820D02*
Y540D01*
X2332Y-3439D02*
X3294Y-2478D01*
X3181Y-4288D02*
X4142Y-3326D01*
X-8295Y2360D02*
X-5695Y2360D01*
X-8295Y-2440D02*
Y2360D01*
Y-2440D02*
X-5695D01*
X-5695Y2360D01*
X-6095Y-1240D02*
Y1160D01*
X-7895Y-1240D02*
Y1160D01*
Y-40D02*
X-7295D01*
X-6695D02*
X-6095D01*
X-7295Y-240D02*
X-6695D01*
X-6995Y-640D02*
X-6995Y-240D01*
D13*
X-1986Y600D02*
X-733Y1852D01*
X743Y-2129D02*
X1995Y-876D01*
X-733Y1852D02*
X-663Y1783D01*
X673Y-2059D02*
X743Y-2129D01*
X1926Y-806D02*
X1995Y-876D01*
D14*
X-2237Y10D02*
X-2190Y57D01*
X-2213Y34D01*
X-2353Y173D01*
X-2353Y126D01*
D15*
X4170Y8890D02*
Y8740D01*
X4220Y8690D01*
X4270Y8740D01*
X4320Y8690D01*
X4370Y8740D01*
Y8890D01*
X4470D02*
Y8740D01*
X4520Y8690D01*
X4570Y8740D01*
X4620Y8690D01*
X4670Y8740D01*
Y8890D01*
X4770D02*
Y8740D01*
X4820Y8690D01*
X4870Y8740D01*
X4920Y8690D01*
X4970Y8740D01*
Y8890D01*
X5070Y8690D02*
Y8740D01*
X5120D01*
Y8690D01*
X5070D01*
X5470D02*
X5370D01*
X5320Y8740D01*
Y8840D01*
X5370Y8890D01*
X5470D01*
X5520Y8840D01*
Y8790D01*
X5320D01*
X5620Y8690D02*
Y8890D01*
X5769D01*
X5819Y8840D01*
Y8690D01*
X6019Y8590D02*
X6069D01*
X6119Y8640D01*
Y8890D01*
X5969D01*
X5919Y8840D01*
Y8740D01*
X5969Y8690D01*
X6119D01*
X6369D02*
X6269D01*
X6219Y8740D01*
Y8840D01*
X6269Y8890D01*
X6369D01*
X6419Y8840D01*
Y8790D01*
X6219D01*
X6519Y8690D02*
Y8890D01*
X6669D01*
X6719Y8840D01*
Y8690D01*
X6819Y8890D02*
Y8740D01*
X6869Y8690D01*
X7019D01*
Y8890D01*
X7119Y8690D02*
X7219D01*
X7169D01*
Y8890D01*
X7119D01*
X7569D02*
X7419D01*
X7369Y8840D01*
Y8740D01*
X7419Y8690D01*
X7569D01*
X7669D02*
X7819D01*
X7869Y8740D01*
X7819Y8790D01*
X7719D01*
X7669Y8840D01*
X7719Y8890D01*
X7869D01*
X7969Y8690D02*
Y8740D01*
X8019D01*
Y8690D01*
X7969D01*
X8419Y8890D02*
X8269D01*
X8219Y8840D01*
Y8740D01*
X8269Y8690D01*
X8419D01*
X8569D02*
X8669D01*
X8719Y8740D01*
Y8840D01*
X8669Y8890D01*
X8569D01*
X8519Y8840D01*
Y8740D01*
X8569Y8690D01*
X8819D02*
Y8890D01*
X8868D01*
X8918Y8840D01*
Y8690D01*
Y8840D01*
X8968Y8890D01*
X9018Y8840D01*
Y8690D01*
X8900Y7980D02*
X8850Y8030D01*
X8750D01*
X8700Y7980D01*
Y7930D01*
X8750Y7880D01*
X8850D01*
X8900Y7830D01*
Y7780D01*
X8850Y7730D01*
X8750D01*
X8700Y7780D01*
X6620Y7770D02*
Y7970D01*
X6720Y8070D01*
X6820Y7970D01*
Y7770D01*
Y7920D01*
X6620D01*
X2700Y8070D02*
X2650Y8120D01*
X2550D01*
X2500Y8070D01*
Y8020D01*
X2550Y7970D01*
X2650D01*
X2700Y7920D01*
Y7870D01*
X2650Y7820D01*
X2550D01*
X2500Y7870D01*
X3000Y8120D02*
X2800D01*
Y7970D01*
X2900Y8020D01*
X2950D01*
X3000Y7970D01*
Y7870D01*
X2950Y7820D01*
X2850D01*
X2800Y7870D01*
X7930Y2960D02*
X7880Y3010D01*
X7780D01*
X7730Y2960D01*
Y2910D01*
X7780Y2860D01*
X7880D01*
X7930Y2810D01*
Y2760D01*
X7880Y2710D01*
X7780D01*
X7730Y2760D01*
X8180Y2710D02*
Y3010D01*
X8030Y2860D01*
X8230D01*
X2810Y-5770D02*
X2760Y-5720D01*
X2660D01*
X2610Y-5770D01*
Y-5820D01*
X2660Y-5870D01*
X2760D01*
X2810Y-5920D01*
Y-5970D01*
X2760Y-6020D01*
X2660D01*
X2610Y-5970D01*
X2910Y-5770D02*
X2960Y-5720D01*
X3060D01*
X3110Y-5770D01*
Y-5820D01*
X3060Y-5870D01*
X3010D01*
X3060D01*
X3110Y-5920D01*
Y-5970D01*
X3060Y-6020D01*
X2960D01*
X2910Y-5970D01*
X-8070Y2900D02*
X-8120Y2950D01*
X-8220D01*
X-8270Y2900D01*
Y2850D01*
X-8220Y2800D01*
X-8120D01*
X-8070Y2750D01*
Y2700D01*
X-8120Y2650D01*
X-8220D01*
X-8270Y2700D01*
X-7770Y2650D02*
X-7970D01*
X-7770Y2850D01*
Y2900D01*
X-7820Y2950D01*
X-7920D01*
X-7970Y2900D01*
X1670Y4200D02*
Y4500D01*
X1820D01*
X1870Y4450D01*
Y4350D01*
X1820Y4300D01*
X1670D01*
X1770D02*
X1870Y4200D01*
X1970D02*
X2070D01*
X2020D01*
Y4500D01*
X1970Y4450D01*
X2370Y4200D02*
Y4500D01*
X2220Y4350D01*
X2420D01*
X4430Y-2490D02*
Y-2190D01*
X4580D01*
X4630Y-2240D01*
Y-2340D01*
X4580Y-2390D01*
X4430D01*
X4530D02*
X4630Y-2490D01*
X4730D02*
X4830D01*
X4780D01*
Y-2190D01*
X4730Y-2240D01*
X4980D02*
X5030Y-2190D01*
X5130D01*
X5180Y-2240D01*
Y-2290D01*
X5130Y-2340D01*
X5080D01*
X5130D01*
X5180Y-2390D01*
Y-2440D01*
X5130Y-2490D01*
X5030D01*
X4980Y-2440D01*
X-2830Y-5100D02*
Y-4800D01*
X-2680D01*
X-2630Y-4850D01*
Y-4950D01*
X-2680Y-5000D01*
X-2830D01*
X-2730D02*
X-2630Y-5100D01*
X-2530D02*
X-2430D01*
X-2480D01*
Y-4800D01*
X-2530Y-4850D01*
X-2080Y-5100D02*
X-2280D01*
X-2080Y-4900D01*
Y-4850D01*
X-2130Y-4800D01*
X-2230D01*
X-2280Y-4850D01*
X-5290Y2320D02*
Y2620D01*
X-5140D01*
X-5090Y2570D01*
Y2470D01*
X-5140Y2420D01*
X-5290D01*
X-5190D02*
X-5090Y2320D01*
X-4990D02*
X-4890D01*
X-4940D01*
Y2620D01*
X-4990Y2570D01*
X-4740Y2320D02*
X-4640D01*
X-4690D01*
Y2620D01*
X-4740Y2570D01*
X640Y2530D02*
Y2830D01*
X790D01*
X840Y2780D01*
Y2680D01*
X790Y2630D01*
X640D01*
X740D02*
X840Y2530D01*
X940D02*
X1040D01*
X990D01*
Y2830D01*
X940Y2780D01*
X1190D02*
X1240Y2830D01*
X1340D01*
X1390Y2780D01*
Y2580D01*
X1340Y2530D01*
X1240D01*
X1190Y2580D01*
Y2780D01*
X1880Y1510D02*
Y1810D01*
X2030D01*
X2080Y1760D01*
Y1660D01*
X2030Y1610D01*
X1880D01*
X1980D02*
X2080Y1510D01*
X2180Y1560D02*
X2230Y1510D01*
X2330D01*
X2380Y1560D01*
Y1760D01*
X2330Y1810D01*
X2230D01*
X2180Y1760D01*
Y1710D01*
X2230Y1660D01*
X2380D01*
X2570Y560D02*
Y860D01*
X2720D01*
X2770Y810D01*
Y710D01*
X2720Y660D01*
X2570D01*
X2670D02*
X2770Y560D01*
X2870Y810D02*
X2920Y860D01*
X3020D01*
X3070Y810D01*
Y760D01*
X3020Y710D01*
X3070Y660D01*
Y610D01*
X3020Y560D01*
X2920D01*
X2870Y610D01*
Y660D01*
X2920Y710D01*
X2870Y760D01*
Y810D01*
X2920Y710D02*
X3020D01*
X1830Y-2280D02*
Y-1980D01*
X1980D01*
X2030Y-2030D01*
Y-2130D01*
X1980Y-2180D01*
X1830D01*
X1930D02*
X2030Y-2280D01*
X2130Y-1980D02*
X2330D01*
Y-2030D01*
X2130Y-2230D01*
Y-2280D01*
X680Y-3120D02*
Y-2820D01*
X830D01*
X880Y-2870D01*
Y-2970D01*
X830Y-3020D01*
X680D01*
X780D02*
X880Y-3120D01*
X1180Y-2820D02*
X1080Y-2870D01*
X980Y-2970D01*
Y-3070D01*
X1030Y-3120D01*
X1130D01*
X1180Y-3070D01*
Y-3020D01*
X1130Y-2970D01*
X980D01*
X-2100Y-2280D02*
Y-1980D01*
X-1950D01*
X-1900Y-2030D01*
Y-2130D01*
X-1950Y-2180D01*
X-2100D01*
X-2000D02*
X-1900Y-2280D01*
X-1600Y-1980D02*
X-1800D01*
Y-2130D01*
X-1700Y-2080D01*
X-1650D01*
X-1600Y-2130D01*
Y-2230D01*
X-1650Y-2280D01*
X-1750D01*
X-1800Y-2230D01*
X-3016Y-1620D02*
Y-1320D01*
X-2866D01*
X-2816Y-1370D01*
Y-1470D01*
X-2866Y-1520D01*
X-3016D01*
X-2916D02*
X-2816Y-1620D01*
X-2566D02*
Y-1320D01*
X-2716Y-1470D01*
X-2516D01*
X-1980Y2700D02*
Y3000D01*
X-1830D01*
X-1780Y2950D01*
Y2850D01*
X-1830Y2800D01*
X-1980D01*
X-1880D02*
X-1780Y2700D01*
X-1680Y2950D02*
X-1630Y3000D01*
X-1530D01*
X-1480Y2950D01*
Y2900D01*
X-1530Y2850D01*
X-1580D01*
X-1530D01*
X-1480Y2800D01*
Y2750D01*
X-1530Y2700D01*
X-1630D01*
X-1680Y2750D01*
X5400Y8000D02*
Y8300D01*
X5550D01*
X5600Y8250D01*
Y8150D01*
X5550Y8100D01*
X5400D01*
X5500D02*
X5600Y8000D01*
X5700D02*
X5800D01*
X5750D01*
Y8300D01*
X5700Y8250D01*
X-1510Y1900D02*
Y2200D01*
X-1410Y2100D01*
X-1310Y2200D01*
Y1900D01*
X-1210D02*
X-1110D01*
X-1160D01*
Y2200D01*
X-1210Y2150D01*
X-7270Y8020D02*
X-7370D01*
X-7320D01*
Y7770D01*
X-7370Y7720D01*
X-7420D01*
X-7470Y7770D01*
X-7170Y7720D02*
X-7070D01*
X-7120D01*
Y8020D01*
X-7170Y7970D01*
X-4280Y3970D02*
Y3670D01*
X-4130D01*
X-4080Y3720D01*
Y3920D01*
X-4130Y3970D01*
X-4280D01*
X-3980Y3920D02*
X-3930Y3970D01*
X-3830D01*
X-3780Y3920D01*
Y3870D01*
X-3830Y3820D01*
X-3780Y3770D01*
Y3720D01*
X-3830Y3670D01*
X-3930D01*
X-3980Y3720D01*
Y3770D01*
X-3930Y3820D01*
X-3980Y3870D01*
Y3920D01*
X-3930Y3820D02*
X-3830D01*
X-4320Y-1180D02*
Y-1480D01*
X-4170D01*
X-4120Y-1430D01*
Y-1230D01*
X-4170Y-1180D01*
X-4320D01*
X-4020D02*
X-3820D01*
Y-1230D01*
X-4020Y-1430D01*
Y-1480D01*
X-4360Y-4040D02*
Y-4340D01*
X-4210D01*
X-4160Y-4290D01*
Y-4090D01*
X-4210Y-4040D01*
X-4360D01*
X-3860D02*
X-3960Y-4090D01*
X-4060Y-4190D01*
Y-4290D01*
X-4010Y-4340D01*
X-3910D01*
X-3860Y-4290D01*
Y-4240D01*
X-3910Y-4190D01*
X-4060D01*
X1010Y-3992D02*
Y-4292D01*
X1160D01*
X1210Y-4242D01*
Y-4042D01*
X1160Y-3992D01*
X1010D01*
X1510D02*
X1310D01*
Y-4142D01*
X1410Y-4092D01*
X1460D01*
X1510Y-4142D01*
Y-4242D01*
X1460Y-4292D01*
X1360D01*
X1310Y-4242D01*
X3880Y-3840D02*
Y-4140D01*
X4030D01*
X4080Y-4090D01*
Y-3890D01*
X4030Y-3840D01*
X3880D01*
X4330Y-4140D02*
Y-3840D01*
X4180Y-3990D01*
X4380D01*
X3770Y1150D02*
Y850D01*
X3920D01*
X3970Y900D01*
Y1100D01*
X3920Y1150D01*
X3770D01*
X4070Y1100D02*
X4120Y1150D01*
X4220D01*
X4270Y1100D01*
Y1050D01*
X4220Y1000D01*
X4170D01*
X4220D01*
X4270Y950D01*
Y900D01*
X4220Y850D01*
X4120D01*
X4070Y900D01*
X3690Y4140D02*
Y3840D01*
X3840D01*
X3890Y3890D01*
Y4090D01*
X3840Y4140D01*
X3690D01*
X4190Y3840D02*
X3990D01*
X4190Y4040D01*
Y4090D01*
X4140Y4140D01*
X4040D01*
X3990Y4090D01*
X-260Y4890D02*
Y4590D01*
X-110D01*
X-60Y4640D01*
Y4840D01*
X-110Y4890D01*
X-260D01*
X40Y4590D02*
X140D01*
X90D01*
Y4890D01*
X40Y4840D01*
X-2845Y1338D02*
X-2916Y1338D01*
X-2987Y1267D01*
Y1197D01*
X-2845Y1055D01*
X-2775D01*
X-2704Y1126D01*
X-2704Y1197D01*
X-2598Y1232D02*
X-2527Y1303D01*
X-2563Y1267D01*
X-2775Y1479D01*
Y1409D01*
D16*
X-2113Y459D02*
D03*
D17*
X-3319Y4015D02*
D03*
X-2365Y3061D02*
D03*
X3279Y-4295D02*
D03*
X2325Y-3341D02*
D03*
D18*
X-4694Y475D02*
D03*
X-3346D02*
D03*
X4654Y-755D02*
D03*
X3306Y-755D02*
D03*
D19*
X-4185Y-3429D02*
D03*
X-3231Y-2475D02*
D03*
X4135Y3159D02*
D03*
X3181Y2205D02*
D03*
D20*
X595Y4514D02*
D03*
Y3166D02*
D03*
X-635Y-4814D02*
D03*
Y-3466D02*
D03*
M02*
