G04*
G04 #@! TF.GenerationSoftware,Altium Limited,Altium Designer,18.1.9 (240)*
G04*
G04 Layer_Physical_Order=1*
G04 Layer_Color=255*
%FSLAX24Y24*%
%MOIN*%
G70*
G01*
G75*
%ADD10C,0.0100*%
G04:AMPARAMS|DCode=21|XSize=27mil|YSize=35mil|CornerRadius=0mil|HoleSize=0mil|Usage=FLASHONLY|Rotation=225.000|XOffset=0mil|YOffset=0mil|HoleType=Round|Shape=Rectangle|*
%AMROTATEDRECTD21*
4,1,4,-0.0028,0.0219,0.0219,-0.0028,0.0028,-0.0219,-0.0219,0.0028,-0.0028,0.0219,0.0*
%
%ADD21ROTATEDRECTD21*%

%ADD22R,0.0270X0.0350*%
%ADD23R,0.0830X0.0550*%
G04:AMPARAMS|DCode=24|XSize=15.7mil|YSize=43.3mil|CornerRadius=0mil|HoleSize=0mil|Usage=FLASHONLY|Rotation=315.000|XOffset=0mil|YOffset=0mil|HoleType=Round|Shape=Rectangle|*
%AMROTATEDRECTD24*
4,1,4,-0.0209,-0.0097,0.0097,0.0209,0.0209,0.0097,-0.0097,-0.0209,-0.0209,-0.0097,0.0*
%
%ADD24ROTATEDRECTD24*%

%ADD25R,0.0550X0.0830*%
%ADD26R,0.0350X0.0270*%
G04:AMPARAMS|DCode=27|XSize=102mil|YSize=59mil|CornerRadius=0mil|HoleSize=0mil|Usage=FLASHONLY|Rotation=315.000|XOffset=0mil|YOffset=0mil|HoleType=Round|Shape=Rectangle|*
%AMROTATEDRECTD27*
4,1,4,-0.0569,0.0152,-0.0152,0.0569,0.0569,-0.0152,0.0152,-0.0569,-0.0569,0.0152,0.0*
%
%ADD27ROTATEDRECTD27*%

%ADD28R,0.1020X0.0590*%
G04:AMPARAMS|DCode=29|XSize=102mil|YSize=59mil|CornerRadius=0mil|HoleSize=0mil|Usage=FLASHONLY|Rotation=45.000|XOffset=0mil|YOffset=0mil|HoleType=Round|Shape=Rectangle|*
%AMROTATEDRECTD29*
4,1,4,-0.0152,-0.0569,-0.0569,-0.0152,0.0152,0.0569,0.0569,0.0152,-0.0152,-0.0569,0.0*
%
%ADD29ROTATEDRECTD29*%

G04:AMPARAMS|DCode=30|XSize=27mil|YSize=35mil|CornerRadius=0mil|HoleSize=0mil|Usage=FLASHONLY|Rotation=315.000|XOffset=0mil|YOffset=0mil|HoleType=Round|Shape=Rectangle|*
%AMROTATEDRECTD30*
4,1,4,-0.0219,-0.0028,0.0028,0.0219,0.0219,0.0028,-0.0028,-0.0219,-0.0219,-0.0028,0.0*
%
%ADD30ROTATEDRECTD30*%

%ADD31R,0.0590X0.1020*%
%ADD32R,0.0400X0.0400*%
%ADD33R,0.0400X0.0400*%
%ADD34C,0.0700*%
%ADD35C,0.0300*%
D10*
X-990Y1640D02*
Y1650D01*
X-390Y1100D02*
X-386D01*
X-1740Y790D02*
X-1730Y780D01*
Y480D02*
Y780D01*
X-720Y1370D02*
X-478D01*
X-70Y790D02*
X17Y877D01*
X2100Y4550D02*
X3580D01*
X1740Y4910D02*
X2100Y4550D01*
X-7220Y5350D02*
Y5990D01*
Y5350D02*
X-3560Y1690D01*
X-3050D01*
X-2300Y940D01*
X-2525Y715D02*
X-2300Y940D01*
X-2525Y335D02*
Y715D01*
Y335D02*
X-2294Y104D01*
X-1503Y-298D02*
X-1422D01*
X-1651Y-446D02*
X-1503Y-298D01*
X-1974Y-446D02*
X-1651D01*
X-2294Y-126D02*
X-1974Y-446D01*
X-2294Y-126D02*
Y104D01*
X-1380Y468D02*
Y840D01*
X-1890Y1350D02*
X-1380Y840D01*
X-7740Y5470D02*
X-7220Y5990D01*
X-7740Y2700D02*
Y5470D01*
Y2700D02*
X-7120Y2080D01*
X-7895Y1760D02*
X-7420D01*
X-1853Y-808D02*
X-1289D01*
X-2464Y-197D02*
X-1853Y-808D01*
X-2464Y-197D02*
Y34D01*
X-3650Y1220D02*
X-2464Y34D01*
X570Y3840D02*
X580Y3850D01*
X1370D01*
X3230Y3100D02*
X3240D01*
X3640Y2700D01*
X6610Y3020D02*
X6645D01*
X7825Y1840D01*
X-5060Y-1040D02*
Y40D01*
X-4650Y450D01*
X-6840Y-3480D02*
X-6560D01*
X-7895Y-2425D02*
X-6840Y-3480D01*
X-4290Y-2480D02*
X-3800Y-2970D01*
X-3690D01*
X-1310Y-4000D02*
X-1170Y-4140D01*
X-610D01*
X-2050Y-6730D02*
X-1790Y-6990D01*
Y-7875D02*
Y-6990D01*
X2200Y-2640D02*
X2335Y-2775D01*
X1030Y-2640D02*
X2200D01*
X826Y-2436D02*
X1030Y-2640D01*
X7825Y-1925D02*
Y-1740D01*
Y-1925D02*
X8480Y-2580D01*
Y-2770D02*
Y-2580D01*
X8360Y-2890D02*
X8480Y-2770D01*
X1790Y-6105D02*
X4125D01*
X5290Y-4940D01*
Y-3610D01*
X4235Y-2555D02*
X5290Y-3610D01*
X240Y-2436D02*
X826D01*
X-7895Y-2425D02*
Y-1820D01*
X-4650Y450D02*
X-4020D01*
X-5290Y1220D02*
X-3650D01*
X-5590Y920D02*
X-5290Y1220D01*
X-5590Y-1285D02*
Y920D01*
X-6125Y-1820D02*
X-5590Y-1285D01*
X-7220Y5990D02*
X-4750Y3520D01*
X-5510Y2660D02*
X-4700Y1850D01*
X-7270Y2660D02*
X-5510D01*
X-200Y4610D02*
X570Y3840D01*
X-970Y4610D02*
X-200D01*
X-2060Y3520D02*
X-970Y4610D01*
X-2860Y3520D02*
X-2060D01*
X3580Y4550D02*
X4490Y3640D01*
Y2782D02*
Y3640D01*
X2240Y532D02*
X4490Y2782D01*
X-1965Y245D02*
X-1730Y480D01*
X59Y-2075D02*
X207Y-1927D01*
X59Y-2255D02*
Y-2075D01*
X346Y1108D02*
X494Y1256D01*
Y1436D01*
X527Y927D02*
X675Y1075D01*
Y1495D01*
X1070Y384D02*
X1151D01*
X1298Y532D01*
X2240D01*
X1251Y203D02*
X1398Y351D01*
X2371D01*
X1613Y-159D02*
X1760Y-11D01*
X1941D01*
X1310Y-610D02*
X1523D01*
X-5680Y8530D02*
X-1620D01*
X-7220Y6990D02*
X-5680Y8530D01*
X-7120Y2060D02*
Y2080D01*
X-7420Y1760D02*
X-7120Y2060D01*
X-1380Y468D02*
X-1378Y470D01*
X-970D01*
X1450Y-1950D01*
X1700D01*
X3335Y-315D01*
X4540D01*
X4610Y-385D01*
Y-1075D02*
Y-385D01*
X4520Y-1165D02*
X4610Y-1075D01*
X4520Y-1750D02*
Y-1165D01*
X-7895Y-1820D02*
Y1760D01*
X5420Y-2890D02*
X8360D01*
X4575Y-2045D02*
X5420Y-2890D01*
X4335Y-2045D02*
X4575D01*
X4265Y-1975D02*
X4335Y-2045D01*
X4265Y-1975D02*
Y-1864D01*
X3980Y-1579D02*
X4265Y-1864D01*
X3980Y-1579D02*
Y-730D01*
X4376Y-2215D02*
X5791Y-3630D01*
X3386Y-1226D02*
X4095Y-1934D01*
X4124Y-2555D02*
X4235D01*
X3755Y-2186D02*
X4124Y-2555D01*
X3755Y-2186D02*
Y-2075D01*
X3246Y-1566D02*
X3755Y-2075D01*
X4305Y-2385D02*
X5720Y-3800D01*
X4194Y-2385D02*
X4305D01*
X3925Y-2116D02*
X4194Y-2385D01*
X3925Y-2116D02*
Y-2005D01*
X3316Y-1396D02*
X3925Y-2005D01*
X4265Y-2215D02*
X4376D01*
X4095Y-2045D02*
X4265Y-2215D01*
X4095Y-2045D02*
Y-1934D01*
X3030Y8400D02*
X3080Y8350D01*
X3030Y8400D02*
X3140Y8510D01*
X4680D01*
X5290Y7900D01*
Y7560D02*
Y7900D01*
X-1620Y8530D02*
Y8570D01*
X-1510Y8680D01*
X4750D01*
X5870Y7560D01*
X2679Y-1226D02*
X3386D01*
X2750Y-1396D02*
X3316D01*
X2820Y-1566D02*
X3246D01*
X6828Y-3420D02*
X6830D01*
X6618Y-3630D02*
X6828Y-3420D01*
X5791Y-3630D02*
X6618D01*
X5720Y-3800D02*
X6830D01*
X7295Y7875D02*
X7300Y7880D01*
X7295Y6925D02*
Y7875D01*
X8200D02*
X8210Y7885D01*
X8200Y6750D02*
Y7875D01*
X1785Y-2120D02*
X2679Y-1226D01*
X1380Y-2120D02*
X1785D01*
X-60Y-680D02*
X1380Y-2120D01*
X-356Y-680D02*
X-60D01*
X1845Y-2300D02*
X2750Y-1396D01*
X1270Y-2300D02*
X1845D01*
X-30Y-1000D02*
X1270Y-2300D01*
X-478Y1370D02*
X-197Y1651D01*
X17Y877D02*
Y1141D01*
X-386Y1100D02*
X-16Y1470D01*
X-1784Y64D02*
X-1380Y468D01*
X-1288Y198D02*
X-1122D01*
X-1603Y-117D02*
X-1288Y198D01*
X-1850Y7430D02*
Y7885D01*
Y7430D02*
X-1660Y7240D01*
X-1122Y198D02*
X-1120Y200D01*
X1583Y-880D02*
X1942Y-521D01*
X1974D01*
X1583Y-880D02*
Y-847D01*
X1620Y-810D01*
X1523Y-610D02*
X1793Y-340D01*
X527Y203D02*
X889Y565D01*
X17Y1141D02*
X165Y1289D01*
X-990Y1650D02*
X-808Y1832D01*
X-378D01*
X-314Y-1000D02*
X-30D01*
X-517Y-1203D02*
X-314Y-1000D01*
X-698Y-1022D02*
X-356Y-680D01*
X-630Y-400D02*
X-620Y-410D01*
Y-582D02*
Y-410D01*
X-879Y-841D02*
X-620Y-582D01*
X-1603Y-117D02*
X-1561D01*
X-698Y-1022D02*
X-678D01*
X-1784Y64D02*
X-1764D01*
X-4750Y3520D02*
X-2860D01*
X-610Y-4140D02*
X370Y-5120D01*
X1500D01*
X2820Y-3800D01*
X-2900Y-5860D02*
X-1640Y-4600D01*
X-2900Y-8120D02*
Y-5860D01*
X5390Y-2620D02*
X8020D01*
X4520Y-1750D02*
X5390Y-2620D01*
X3030Y5620D02*
Y8400D01*
X2320Y4910D02*
X3030Y5620D01*
X3860Y1840D02*
X6055D01*
X2371Y351D02*
X3860Y1840D01*
X-1141Y-660D02*
X-1060D01*
X-1289Y-808D02*
X-1141Y-660D01*
X896Y-2266D02*
X1100Y-2470D01*
X546Y-2266D02*
X896D01*
X388Y-2108D02*
X546Y-2266D01*
X3346Y-2966D02*
X3654D01*
X2745Y-2365D02*
X3346Y-2966D01*
X1916Y-2470D02*
X2820Y-1566D01*
X1100Y-2470D02*
X1916D01*
X59Y-2255D02*
X240Y-2436D01*
X-190Y-2990D02*
Y-1961D01*
X26Y-1746D01*
X5100Y-1750D02*
X5110Y-1740D01*
X6055D01*
X7825D02*
Y1840D01*
X6055Y-1740D02*
Y1840D01*
X1730Y4920D02*
X1740Y4910D01*
X1730Y4920D02*
Y6115D01*
X-1850D02*
X1730D01*
X-1850Y7885D02*
X1730D01*
X-5370Y1760D02*
X-5280Y1850D01*
X-6125Y1760D02*
X-5370D01*
X-6125Y-1820D02*
Y1760D01*
X-1790Y-6105D02*
X-1640Y-5955D01*
Y-5180D01*
X-1790Y-6105D02*
X1790D01*
X-1790Y-7875D02*
X1790D01*
X240Y1930D02*
X675Y1495D01*
X240Y1930D02*
Y2730D01*
X-610Y3000D02*
X-340Y2730D01*
X-610Y3000D02*
Y3840D01*
X-231Y2160D02*
X494Y1436D01*
X-707Y2160D02*
X-231D01*
X-1036Y2490D02*
X-707Y2160D01*
X-2250Y2490D02*
X-1036D01*
X-3266Y2686D02*
X-2660Y2080D01*
X-3694Y2686D02*
X-3266D01*
X-565Y-1532D02*
X-377Y-1343D01*
X-377D02*
X-336Y-1384D01*
X-377Y-1343D02*
X-377D01*
X-664Y-1532D02*
X-565D01*
X-1156Y-1040D02*
X-664Y-1532D01*
X-2760Y-1040D02*
X-1156D01*
X-3030Y-730D02*
X-2760Y-460D01*
X-4020Y-730D02*
X-3030D01*
X-1005Y-2415D02*
X-155Y-1565D01*
X-2585Y-2415D02*
X-1005D01*
X-2175Y-3124D02*
Y-2825D01*
X-2856Y-3804D02*
X-2175Y-3124D01*
X390Y-2990D02*
X570Y-3170D01*
Y-4140D02*
Y-3170D01*
X1941Y-11D02*
X2230Y-300D01*
X2830D01*
X2830Y280D02*
X3000Y450D01*
X3980D01*
X2230Y2959D02*
X2806Y3534D01*
X2230Y2530D02*
Y2959D01*
X708Y746D02*
X2082Y2120D01*
X2640D01*
X3810Y280D02*
X3980Y450D01*
X2335Y-2775D02*
Y-2695D01*
X390Y-3960D02*
X570Y-4140D01*
D21*
X-1890Y1350D02*
D03*
X-2300Y940D02*
D03*
X-2250Y2490D02*
D03*
X-2660Y2080D02*
D03*
X2335Y-2775D02*
D03*
X2745Y-2365D02*
D03*
D22*
X5290Y7560D02*
D03*
X5870Y7560D02*
D03*
X-5280Y1850D02*
D03*
X-4700Y1850D02*
D03*
X1740Y4910D02*
D03*
X2320Y4910D02*
D03*
X5100Y-1750D02*
D03*
X4520Y-1750D02*
D03*
X-190Y-2990D02*
D03*
X390Y-2990D02*
D03*
X240Y2730D02*
D03*
X-340Y2730D02*
D03*
D23*
X1730Y6115D02*
D03*
X-1850D02*
D03*
X1730Y7885D02*
D03*
X-1850D02*
D03*
X-1790Y-6105D02*
D03*
X1790D02*
D03*
X-1790Y-7875D02*
D03*
X1790D02*
D03*
D24*
X-1784Y64D02*
D03*
X-1603Y-117D02*
D03*
X-1422Y-298D02*
D03*
X-1241Y-479D02*
D03*
X-1060Y-660D02*
D03*
X-879Y-841D02*
D03*
X-698Y-1022D02*
D03*
X-517Y-1203D02*
D03*
X-336Y-1384D02*
D03*
X-155Y-1565D02*
D03*
X26Y-1746D02*
D03*
X207Y-1927D02*
D03*
X388Y-2108D02*
D03*
X-1965Y245D02*
D03*
X-378Y1832D02*
D03*
D03*
X-197Y1651D02*
D03*
X-16Y1470D02*
D03*
X165Y1289D02*
D03*
X346Y1108D02*
D03*
X527Y927D02*
D03*
X708Y746D02*
D03*
X889Y565D02*
D03*
X1070Y384D02*
D03*
X1251Y203D02*
D03*
X1432Y22D02*
D03*
X1613Y-159D02*
D03*
X1793Y-340D02*
D03*
X1974Y-521D02*
D03*
D25*
X6055Y-1740D02*
D03*
Y1840D02*
D03*
X7825Y-1740D02*
D03*
Y1840D02*
D03*
X-6125Y1760D02*
D03*
Y-1820D02*
D03*
X-7895Y1760D02*
D03*
Y-1820D02*
D03*
D26*
X-1640Y-5180D02*
D03*
X-1640Y-4600D02*
D03*
X-2760Y-1040D02*
D03*
X-2760Y-460D02*
D03*
X2830Y-300D02*
D03*
X2830Y280D02*
D03*
D27*
X-2860Y3520D02*
D03*
X-3694Y2686D02*
D03*
X2820Y-3800D02*
D03*
X3654Y-2966D02*
D03*
D28*
X-4020Y450D02*
D03*
Y-730D02*
D03*
X3980D02*
D03*
Y450D02*
D03*
D29*
X-3690Y-2970D02*
D03*
X-2856Y-3804D02*
D03*
X3640Y2700D02*
D03*
X2806Y3534D02*
D03*
D30*
X-2585Y-2415D02*
D03*
X-2175Y-2825D02*
D03*
X2640Y2120D02*
D03*
X2230Y2530D02*
D03*
D31*
X570Y3840D02*
D03*
X-610D02*
D03*
Y-4140D02*
D03*
X570D02*
D03*
D32*
X7260Y7860D02*
D03*
D33*
X8210Y7885D02*
D03*
D34*
X-7220Y6990D02*
D03*
Y5990D02*
D03*
X8500Y-8500D02*
D03*
X-8500D02*
D03*
D35*
X-990Y1640D02*
D03*
X-390Y1100D02*
D03*
X-1730Y780D02*
D03*
X-720Y1370D02*
D03*
X-70Y790D02*
D03*
X3230Y3100D02*
D03*
X1370Y3850D02*
D03*
X6610Y3020D02*
D03*
X-5060Y-1040D02*
D03*
X-6560Y-3480D02*
D03*
X-4290Y-2480D02*
D03*
X-1310Y-4000D02*
D03*
X-2050Y-6730D02*
D03*
X1310Y-610D02*
D03*
X-7120Y2080D02*
D03*
X-1620Y8530D02*
D03*
X6830Y-3420D02*
D03*
Y-3800D02*
D03*
X7295Y6925D02*
D03*
X8200Y6750D02*
D03*
X-1380Y468D02*
D03*
X-1660Y7240D02*
D03*
X-1120Y200D02*
D03*
X1583Y-880D02*
D03*
X527Y203D02*
D03*
X-630Y-400D02*
D03*
X-2900Y-8120D02*
D03*
X8020Y-2620D02*
D03*
X-7270Y2660D02*
D03*
X3030Y8400D02*
D03*
M02*
