M48
;Layer_Color=15461320
;FILE_FORMAT=2:4
INCH,LZ
;TYPE=PLATED
T1F00S00C0.0170
T2F00S00C0.0420
;TYPE=NON_PLATED
T3F00S00C0.0700
%
T01
X-00205Y-00673
X-00131Y-004
X00683Y-0038
Y-00342
X00802Y-00262
X-00429Y-00248
X-00656Y-00348
X-0029Y-00812
X-00506Y-00104
X-00712Y00208
X-00727Y00266
X-00099Y00164
X-00072Y00137
X-00039Y0011
X-00007Y00079
X000527Y000203
X00131Y-00061
X001583Y-00088
X-00063Y-0004
X-00112Y0002
X-00138Y000468
X-00173Y00078
X00137Y00385
X00323Y0031
X00661Y00302
X007295Y006925
X0082Y00675
X00303Y0084
X-00162Y00853
X-00166Y00724
T02
X-00722Y00599
Y00699
T03
X0085Y-0085
X-0085
M30
